<?xml version="1.0" encoding="utf-8"?>
<!-- Generator: Adobe Illustrator 27.8.1, SVG Export Plug-In . SVG Version: 6.00 Build 0)  -->
<svg version="1.1" id="logo" xmlns="http://www.w3.org/2000/svg" xmlns:xlink="http://www.w3.org/1999/xlink" x="0px" y="0px"
	 viewBox="0 0 262.6 255.3" style="enable-background:new 0 0 262.6 255.3;" xml:space="preserve">
<style type="text/css">
	
		.st0{fill:url(#SVGID_1_);stroke:url(#SVGID_00000064349888060680288510000012170185747431920044_);stroke-width:3;stroke-linecap:round;stroke-miterlimit:10;}
	
		.st1{fill:url(#SVGID_00000120550549278863564860000001711639605461702821_);stroke:url(#SVGID_00000155146903870033000080000013259366987150271370_);stroke-width:3;stroke-linecap:round;stroke-miterlimit:10;}
	
		.st2{fill:url(#SVGID_00000028305254873808514680000005890478050608216211_);stroke:url(#SVGID_00000182490017127149818680000001258816614411287452_);stroke-width:3;stroke-linecap:round;stroke-miterlimit:10;}
	
		.st3{fill:url(#SVGID_00000077317819557112370460000000913189472461847988_);stroke:url(#SVGID_00000018960030936507009630000005854176370140910721_);stroke-width:3;stroke-linecap:round;stroke-miterlimit:10;}
	
		.st4{fill:url(#SVGID_00000178182017545205218130000010504254595696395154_);stroke:url(#SVGID_00000002378132901075919480000013307816969594593720_);stroke-width:3;stroke-linecap:round;stroke-miterlimit:10;}
	
		.st5{fill:url(#SVGID_00000039831365552761258060000001108269250448975260_);stroke:url(#SVGID_00000017491847676409282670000017136883556106093991_);stroke-width:3;stroke-linecap:round;stroke-miterlimit:10;}
	
		.st6{fill:url(#SVGID_00000177458348467478736670000009221669142977668741_);stroke:url(#SVGID_00000168098967350833410110000016900593950252321689_);stroke-width:3;stroke-linecap:round;stroke-miterlimit:10;}
	
		.st7{fill:url(#SVGID_00000069394899025143742680000002608350157616947095_);stroke:url(#SVGID_00000039825883363083964060000014777340904408067517_);stroke-width:3;stroke-linecap:round;stroke-miterlimit:10;}
	
		.st8{fill:url(#SVGID_00000112630942837421358400000016205916950774560677_);stroke:url(#SVGID_00000176728379563678496080000012010229272767630982_);stroke-width:3;stroke-linecap:round;stroke-miterlimit:10;}
	
		.st9{fill:url(#SVGID_00000078003827141597918430000009061609691340704927_);stroke:url(#SVGID_00000034080894027790600650000011960287597610003886_);stroke-width:3;stroke-linecap:round;stroke-miterlimit:10;}
	
		.st10{fill:url(#SVGID_00000134212450514716724630000012528954433536531362_);stroke:url(#SVGID_00000084500352101638417980000009909463793066199939_);stroke-width:3;stroke-linecap:round;stroke-miterlimit:10;}
	
		.st11{fill:url(#SVGID_00000160873425488047808050000008765352749454243736_);stroke:url(#SVGID_00000154384062940161416680000010837971173050185094_);stroke-width:3;stroke-linecap:round;stroke-miterlimit:10;}
	
		.st12{fill:url(#SVGID_00000174566612907799349010000004763404686227723951_);stroke:url(#SVGID_00000009558399724153214550000007961070826114007727_);stroke-width:3;stroke-linecap:round;stroke-miterlimit:10;}
	
		.st13{fill:url(#SVGID_00000044162444392942582890000006871746616433710244_);stroke:url(#SVGID_00000089555011570459941750000014817234340188844431_);stroke-width:3;stroke-linecap:round;stroke-miterlimit:10;}
	
		.st14{fill:url(#SVGID_00000043425172231243763880000009816869185521125763_);stroke:url(#SVGID_00000070840186632773681840000014027301508108133820_);stroke-width:3;stroke-linecap:round;stroke-miterlimit:10;}
	
		.st15{fill:url(#SVGID_00000021102329446362922980000001776374442142095258_);stroke:url(#SVGID_00000071517325386187984120000009933844698959538836_);stroke-width:3;stroke-linecap:round;stroke-miterlimit:10;}
	
		.st16{fill:url(#SVGID_00000145779276023824726790000004393375260598406840_);stroke:url(#SVGID_00000058557356411179096910000017381375767557372318_);stroke-width:3;stroke-linecap:round;stroke-miterlimit:10;}
	
		.st17{fill:url(#SVGID_00000067218446113233231280000004456115839168990380_);stroke:url(#SVGID_00000008132894472221174180000017885264049891376275_);stroke-width:3;stroke-linecap:round;stroke-miterlimit:10;}
	
		.st18{fill:url(#SVGID_00000170984092587023162390000018168943417272778426_);stroke:url(#SVGID_00000086664762842665484850000013988663096276853662_);stroke-width:3;stroke-linecap:round;stroke-miterlimit:10;}
	
		.st19{fill:url(#SVGID_00000165945542631100626550000013552322771117164429_);stroke:url(#SVGID_00000091707731723582096380000003135841293516613001_);stroke-width:3;stroke-linecap:round;stroke-miterlimit:10;}
	
		.st20{fill:none;stroke:url(#SVGID_00000101797324413698358400000012069871199340692376_);stroke-width:3;stroke-linecap:round;stroke-miterlimit:10;}
	
		.st21{fill:none;stroke:url(#SVGID_00000061455564946219899910000015843893322751473546_);stroke-width:3;stroke-linecap:round;stroke-miterlimit:10;}
	
		.st22{fill:none;stroke:url(#SVGID_00000098926381805597683910000003314764283140563344_);stroke-width:3;stroke-linecap:round;stroke-miterlimit:10;}
	
		.st23{fill:none;stroke:url(#SVGID_00000013185794893013672060000004893049482082734236_);stroke-width:3;stroke-linecap:round;stroke-miterlimit:10;}
	
		.st24{fill:none;stroke:url(#SVGID_00000023276117045611052420000009744126924275963809_);stroke-width:3;stroke-linecap:round;stroke-miterlimit:10;}
	
		.st25{fill:none;stroke:url(#SVGID_00000158750855103698110650000010088058620153042088_);stroke-width:3;stroke-linecap:round;stroke-miterlimit:10;}
	
		.st26{fill:none;stroke:url(#SVGID_00000151522040634467206140000009756701723238119589_);stroke-width:3;stroke-linecap:round;stroke-miterlimit:10;}
	
		.st27{fill:none;stroke:url(#SVGID_00000142150816889257970230000008723117000649153680_);stroke-width:3;stroke-linecap:round;stroke-miterlimit:10;}
	
		.st28{fill:none;stroke:url(#SVGID_00000085970026689988865340000017735032250242854846_);stroke-width:3;stroke-linecap:round;stroke-miterlimit:10;}
	
		.st29{fill:none;stroke:url(#SVGID_00000093149959520787816860000013622426575793809080_);stroke-width:3;stroke-linecap:round;stroke-miterlimit:10;}
	
		.st30{fill:none;stroke:url(#SVGID_00000130644727347383673350000016163048682824801449_);stroke-width:3;stroke-linecap:round;stroke-miterlimit:10;}
	
		.st31{fill:none;stroke:url(#SVGID_00000055670347551277827710000003151250425945678516_);stroke-width:3;stroke-linecap:round;stroke-miterlimit:10;}
	
		.st32{fill:none;stroke:url(#SVGID_00000183929706793811611630000009932627171314746499_);stroke-width:3;stroke-linecap:round;stroke-miterlimit:10;}
	
		.st33{fill:none;stroke:url(#SVGID_00000029761773517864074140000012905624272025492608_);stroke-width:3;stroke-linecap:round;stroke-miterlimit:10;}
	
		.st34{fill:none;stroke:url(#SVGID_00000069375806402740596970000002213876930589122184_);stroke-width:3;stroke-linecap:round;stroke-miterlimit:10;}
	
		.st35{fill:none;stroke:url(#SVGID_00000101088684894660343800000002739677126448237966_);stroke-width:3;stroke-linecap:round;stroke-miterlimit:10;}
	
		.st36{fill:none;stroke:url(#SVGID_00000155144390549575367120000009297808206306283169_);stroke-width:3;stroke-linecap:round;stroke-miterlimit:10;}
	.st37{fill:#D290F9;}
</style>
<g>
	<linearGradient id="SVGID_1_" gradientUnits="userSpaceOnUse" x1="48.1399" y1="143.6932" x2="48.1399" y2="143.6932">
		<stop  offset="0" style="stop-color:#7F12BD"/>
		<stop  offset="0.5" style="stop-color:#A931EE"/>
		<stop  offset="1" style="stop-color:#7F12BD"/>
	</linearGradient>
	
		<linearGradient id="SVGID_00000054225321724850504610000017245993351495115190_" gradientUnits="userSpaceOnUse" x1="55.2857" y1="150.8391" x2="40.994" y2="136.5473">
		<stop  offset="0" style="stop-color:#7F12BD"/>
		<stop  offset="0.5" style="stop-color:#A931EE"/>
		<stop  offset="1" style="stop-color:#7F12BD"/>
	</linearGradient>
	
		<line style="fill:url(#SVGID_1_);stroke:url(#SVGID_00000054225321724850504610000017245993351495115190_);stroke-width:3;stroke-linecap:round;stroke-miterlimit:10;" x1="48.1" y1="131.5" x2="48.1" y2="155.9"/>
	
		<linearGradient id="SVGID_00000083778356817200701820000014534406418351797690_" gradientUnits="userSpaceOnUse" x1="55.0944" y1="145.4318" x2="55.0944" y2="145.4318">
		<stop  offset="0" style="stop-color:#7F12BD"/>
		<stop  offset="0.5" style="stop-color:#A931EE"/>
		<stop  offset="1" style="stop-color:#7F12BD"/>
	</linearGradient>
	
		<linearGradient id="SVGID_00000114796287616100955110000011480500981356599957_" gradientUnits="userSpaceOnUse" x1="72.7232" y1="163.0607" x2="37.4656" y2="127.803">
		<stop  offset="0" style="stop-color:#7F12BD"/>
		<stop  offset="0.5" style="stop-color:#A931EE"/>
		<stop  offset="1" style="stop-color:#7F12BD"/>
	</linearGradient>
	
		<line style="fill:url(#SVGID_00000083778356817200701820000014534406418351797690_);stroke:url(#SVGID_00000114796287616100955110000011480500981356599957_);stroke-width:3;stroke-linecap:round;stroke-miterlimit:10;" x1="55.1" y1="112.3" x2="55.1" y2="178.6"/>
	
		<linearGradient id="SVGID_00000088105775246850087270000004657367999373407674_" gradientUnits="userSpaceOnUse" x1="60.8444" y1="143.9773" x2="60.8444" y2="143.9773">
		<stop  offset="0" style="stop-color:#7F12BD"/>
		<stop  offset="0.5" style="stop-color:#A931EE"/>
		<stop  offset="1" style="stop-color:#7F12BD"/>
	</linearGradient>
	
		<linearGradient id="SVGID_00000158723330127043539450000016562379228950952116_" gradientUnits="userSpaceOnUse" x1="84.8142" y1="167.947" x2="36.8747" y2="120.0075">
		<stop  offset="0" style="stop-color:#7F12BD"/>
		<stop  offset="0.5" style="stop-color:#A931EE"/>
		<stop  offset="1" style="stop-color:#7F12BD"/>
	</linearGradient>
	
		<line style="fill:url(#SVGID_00000088105775246850087270000004657367999373407674_);stroke:url(#SVGID_00000158723330127043539450000016562379228950952116_);stroke-width:3;stroke-linecap:round;stroke-miterlimit:10;" x1="60.8" y1="98.2" x2="60.8" y2="189.8"/>
	
		<linearGradient id="SVGID_00000149371396444479927170000005722523922957427387_" gradientUnits="userSpaceOnUse" x1="68.3217" y1="141.0852" x2="68.3217" y2="141.0852">
		<stop  offset="0" style="stop-color:#7F12BD"/>
		<stop  offset="0.5" style="stop-color:#A931EE"/>
		<stop  offset="1" style="stop-color:#7F12BD"/>
	</linearGradient>
	
		<linearGradient id="SVGID_00000105412280171771794660000012118524981446808746_" gradientUnits="userSpaceOnUse" x1="95.1806" y1="167.9442" x2="41.4627" y2="114.2263">
		<stop  offset="0" style="stop-color:#7F12BD"/>
		<stop  offset="0.5" style="stop-color:#A931EE"/>
		<stop  offset="1" style="stop-color:#7F12BD"/>
	</linearGradient>
	
		<line style="fill:url(#SVGID_00000149371396444479927170000005722523922957427387_);stroke:url(#SVGID_00000105412280171771794660000012118524981446808746_);stroke-width:3;stroke-linecap:round;stroke-miterlimit:10;" x1="68.3" y1="89.5" x2="68.3" y2="192.7"/>
	
		<linearGradient id="SVGID_00000038392680379560560880000016955357766690898058_" gradientUnits="userSpaceOnUse" x1="75.2762" y1="141.0852" x2="75.2762" y2="141.0852">
		<stop  offset="0" style="stop-color:#7F12BD"/>
		<stop  offset="0.5" style="stop-color:#A931EE"/>
		<stop  offset="1" style="stop-color:#7F12BD"/>
	</linearGradient>
	
		<linearGradient id="SVGID_00000117643982393845483780000013971110584696503740_" gradientUnits="userSpaceOnUse" x1="106.2431" y1="172.0521" x2="44.3093" y2="110.1183">
		<stop  offset="0" style="stop-color:#7F12BD"/>
		<stop  offset="0.5" style="stop-color:#A931EE"/>
		<stop  offset="1" style="stop-color:#7F12BD"/>
	</linearGradient>
	
		<line style="fill:url(#SVGID_00000038392680379560560880000016955357766690898058_);stroke:url(#SVGID_00000117643982393845483780000013971110584696503740_);stroke-width:3;stroke-linecap:round;stroke-miterlimit:10;" x1="75.3" y1="81.3" x2="75.3" y2="200.9"/>
	
		<linearGradient id="SVGID_00000054228417269877907810000009898632526953923003_" gradientUnits="userSpaceOnUse" x1="82.1626" y1="140.9318" x2="82.1626" y2="140.9318">
		<stop  offset="0" style="stop-color:#7F12BD"/>
		<stop  offset="0.5" style="stop-color:#A931EE"/>
		<stop  offset="1" style="stop-color:#7F12BD"/>
	</linearGradient>
	
		<linearGradient id="SVGID_00000132067996827399525500000014870598185142869427_" gradientUnits="userSpaceOnUse" x1="115.746" y1="174.5152" x2="48.5792" y2="107.3484">
		<stop  offset="0" style="stop-color:#7F12BD"/>
		<stop  offset="0.5" style="stop-color:#A931EE"/>
		<stop  offset="1" style="stop-color:#7F12BD"/>
	</linearGradient>
	
		<line style="fill:url(#SVGID_00000054228417269877907810000009898632526953923003_);stroke:url(#SVGID_00000132067996827399525500000014870598185142869427_);stroke-width:3;stroke-linecap:round;stroke-miterlimit:10;" x1="82.2" y1="75.9" x2="82.2" y2="206"/>
	
		<linearGradient id="SVGID_00000138540146299898950950000007728682301001311635_" gradientUnits="userSpaceOnUse" x1="88.4694" y1="141.6307" x2="88.4694" y2="141.6307">
		<stop  offset="0" style="stop-color:#7F12BD"/>
		<stop  offset="0.5" style="stop-color:#A931EE"/>
		<stop  offset="1" style="stop-color:#7F12BD"/>
	</linearGradient>
	
		<linearGradient id="SVGID_00000034075360453548786600000016125225719500673198_" gradientUnits="userSpaceOnUse" x1="77.1319" y1="104.4933" x2="148.6111" y2="175.9726" gradientTransform="matrix(-1 0 0 -1 201.3409 281.8636)">
		<stop  offset="0" style="stop-color:#7F12BD"/>
		<stop  offset="0.5" style="stop-color:#A931EE"/>
		<stop  offset="1" style="stop-color:#7F12BD"/>
	</linearGradient>
	
		<line style="fill:url(#SVGID_00000138540146299898950950000007728682301001311635_);stroke:url(#SVGID_00000034075360453548786600000016125225719500673198_);stroke-width:3;stroke-linecap:round;stroke-miterlimit:10;" x1="88.5" y1="211" x2="88.5" y2="72.3"/>
	
		<linearGradient id="SVGID_00000008147935563919504030000002935463988098756273_" gradientUnits="userSpaceOnUse" x1="96.0035" y1="142.3977" x2="96.0035" y2="142.3977">
		<stop  offset="0" style="stop-color:#7F12BD"/>
		<stop  offset="0.5" style="stop-color:#A931EE"/>
		<stop  offset="1" style="stop-color:#7F12BD"/>
	</linearGradient>
	
		<linearGradient id="SVGID_00000112590496805431389080000007500639745524135849_" gradientUnits="userSpaceOnUse" x1="67.8165" y1="101.945" x2="142.8583" y2="176.9868" gradientTransform="matrix(-1 0 0 -1 201.3409 281.8636)">
		<stop  offset="0" style="stop-color:#7F12BD"/>
		<stop  offset="0.5" style="stop-color:#A931EE"/>
		<stop  offset="1" style="stop-color:#7F12BD"/>
	</linearGradient>
	
		<line style="fill:url(#SVGID_00000008147935563919504030000002935463988098756273_);stroke:url(#SVGID_00000112590496805431389080000007500639745524135849_);stroke-width:3;stroke-linecap:round;stroke-miterlimit:10;" x1="96" y1="215.3" x2="96" y2="69.5"/>
	
		<linearGradient id="SVGID_00000152952091830238631460000011118982405762150062_" gradientUnits="userSpaceOnUse" x1="102.3444" y1="142.3722" x2="102.3444" y2="142.3722">
		<stop  offset="0" style="stop-color:#7F12BD"/>
		<stop  offset="0.5" style="stop-color:#A931EE"/>
		<stop  offset="1" style="stop-color:#7F12BD"/>
	</linearGradient>
	
		<linearGradient id="SVGID_00000098193534869563610830000005261574823023071141_" gradientUnits="userSpaceOnUse" x1="59.656" y1="100.151" x2="138.337" y2="178.832" gradientTransform="matrix(-1 0 0 -1 201.3409 281.8636)">
		<stop  offset="0" style="stop-color:#7F12BD"/>
		<stop  offset="0.5" style="stop-color:#A931EE"/>
		<stop  offset="1" style="stop-color:#7F12BD"/>
	</linearGradient>
	
		<line style="fill:url(#SVGID_00000152952091830238631460000011118982405762150062_);stroke:url(#SVGID_00000098193534869563610830000005261574823023071141_);stroke-width:3;stroke-linecap:round;stroke-miterlimit:10;" x1="102.3" y1="218.9" x2="102.3" y2="65.8"/>
	
		<linearGradient id="SVGID_00000076582109847618491950000012313697478015782580_" gradientUnits="userSpaceOnUse" x1="109.6569" y1="142.3722" x2="109.6569" y2="142.3722">
		<stop  offset="0" style="stop-color:#7F12BD"/>
		<stop  offset="0.5" style="stop-color:#A931EE"/>
		<stop  offset="1" style="stop-color:#7F12BD"/>
	</linearGradient>
	
		<linearGradient id="SVGID_00000000902459716016767130000017971995932585954176_" gradientUnits="userSpaceOnUse" x1="108.2247" y1="180.4342" x2="26.3391" y2="98.5487" gradientTransform="matrix(1 0 0 1 42.375 2.8807)">
		<stop  offset="0" style="stop-color:#7F12BD"/>
		<stop  offset="0.5" style="stop-color:#A931EE"/>
		<stop  offset="1" style="stop-color:#7F12BD"/>
	</linearGradient>
	
		<line style="fill:url(#SVGID_00000076582109847618491950000012313697478015782580_);stroke:url(#SVGID_00000000902459716016767130000017971995932585954176_);stroke-width:3;stroke-linecap:round;stroke-miterlimit:10;" x1="109.7" y1="62.6" x2="109.7" y2="222.1"/>
	
		<linearGradient id="SVGID_00000148663472646376078270000001036842219834720152_" gradientUnits="userSpaceOnUse" x1="116.6626" y1="84.8949" x2="116.6626" y2="84.8949">
		<stop  offset="0" style="stop-color:#7F12BD"/>
		<stop  offset="0.5" style="stop-color:#A931EE"/>
		<stop  offset="1" style="stop-color:#7F12BD"/>
	</linearGradient>
	
		<linearGradient id="SVGID_00000026154747514317617220000011538219400034885816_" gradientUnits="userSpaceOnUse" x1="86.4917" y1="94.2183" x2="62.0835" y2="69.8101" gradientTransform="matrix(1 0 0 1 42.375 2.8807)">
		<stop  offset="0" style="stop-color:#7F12BD"/>
		<stop  offset="0.5" style="stop-color:#A931EE"/>
		<stop  offset="1" style="stop-color:#7F12BD"/>
	</linearGradient>
	
		<line style="fill:url(#SVGID_00000148663472646376078270000001036842219834720152_);stroke:url(#SVGID_00000026154747514317617220000011538219400034885816_);stroke-width:3;stroke-linecap:round;stroke-miterlimit:10;" x1="116.7" y1="62.6" x2="116.7" y2="107.2"/>
	
		<linearGradient id="SVGID_00000129174178510670204040000015065373055838594192_" gradientUnits="userSpaceOnUse" x1="123.3103" y1="81.6733" x2="123.3103" y2="81.6733">
		<stop  offset="0" style="stop-color:#7F12BD"/>
		<stop  offset="0.5" style="stop-color:#A931EE"/>
		<stop  offset="1" style="stop-color:#7F12BD"/>
	</linearGradient>
	
		<linearGradient id="SVGID_00000051358443328304788920000015542786699587853997_" gradientUnits="userSpaceOnUse" x1="91.5286" y1="89.3859" x2="70.342" y2="68.1993" gradientTransform="matrix(1 0 0 1 42.375 2.8807)">
		<stop  offset="0" style="stop-color:#7F12BD"/>
		<stop  offset="0.5" style="stop-color:#A931EE"/>
		<stop  offset="1" style="stop-color:#7F12BD"/>
	</linearGradient>
	
		<line style="fill:url(#SVGID_00000129174178510670204040000015065373055838594192_);stroke:url(#SVGID_00000051358443328304788920000015542786699587853997_);stroke-width:3;stroke-linecap:round;stroke-miterlimit:10;" x1="123.3" y1="62.6" x2="123.3" y2="100.7"/>
	
		<linearGradient id="SVGID_00000127745391068240146300000009239264691730026152_" gradientUnits="userSpaceOnUse" x1="129.8558" y1="79.8835" x2="129.8558" y2="79.8835">
		<stop  offset="0" style="stop-color:#7F12BD"/>
		<stop  offset="0.5" style="stop-color:#A931EE"/>
		<stop  offset="1" style="stop-color:#7F12BD"/>
	</linearGradient>
	
		<linearGradient id="SVGID_00000085244779304911035800000013887098144719576220_" gradientUnits="userSpaceOnUse" x1="101.8776" y1="70.5771" x2="121.8881" y2="90.5876" gradientTransform="matrix(-1 0 0 -1 241.7386 160.4659)">
		<stop  offset="0" style="stop-color:#7F12BD"/>
		<stop  offset="0.5" style="stop-color:#A931EE"/>
		<stop  offset="1" style="stop-color:#7F12BD"/>
	</linearGradient>
	
		<line style="fill:url(#SVGID_00000127745391068240146300000009239264691730026152_);stroke:url(#SVGID_00000085244779304911035800000013887098144719576220_);stroke-width:3;stroke-linecap:round;stroke-miterlimit:10;" x1="129.9" y1="97.8" x2="129.9" y2="62"/>
	
		<linearGradient id="SVGID_00000129903129930967464890000013358895107634163098_" gradientUnits="userSpaceOnUse" x1="136.708" y1="79.8835" x2="136.708" y2="79.8835">
		<stop  offset="0" style="stop-color:#7F12BD"/>
		<stop  offset="0.5" style="stop-color:#A931EE"/>
		<stop  offset="1" style="stop-color:#7F12BD"/>
	</linearGradient>
	
		<linearGradient id="SVGID_00000176726953050485860860000016627112799495175098_" gradientUnits="userSpaceOnUse" x1="95.6134" y1="71.1652" x2="114.4478" y2="89.9996" gradientTransform="matrix(-1 0 0 -1 241.7386 160.4659)">
		<stop  offset="0" style="stop-color:#7F12BD"/>
		<stop  offset="0.5" style="stop-color:#A931EE"/>
		<stop  offset="1" style="stop-color:#7F12BD"/>
	</linearGradient>
	
		<line style="fill:url(#SVGID_00000129903129930967464890000013358895107634163098_);stroke:url(#SVGID_00000176726953050485860860000016627112799495175098_);stroke-width:3;stroke-linecap:round;stroke-miterlimit:10;" x1="136.7" y1="96.6" x2="136.7" y2="63.2"/>
	
		<linearGradient id="SVGID_00000098924595233484246630000017228822305200724869_" gradientUnits="userSpaceOnUse" x1="143.6626" y1="80.4801" x2="143.6626" y2="80.4801">
		<stop  offset="0" style="stop-color:#7F12BD"/>
		<stop  offset="0.5" style="stop-color:#A931EE"/>
		<stop  offset="1" style="stop-color:#7F12BD"/>
	</linearGradient>
	
		<linearGradient id="SVGID_00000052067543884552151220000003949465144817222055_" gradientUnits="userSpaceOnUse" x1="89.6731" y1="71.5828" x2="106.479" y2="88.3888" gradientTransform="matrix(-1 0 0 -1 241.7386 160.4659)">
		<stop  offset="0" style="stop-color:#7F12BD"/>
		<stop  offset="0.5" style="stop-color:#A931EE"/>
		<stop  offset="1" style="stop-color:#7F12BD"/>
	</linearGradient>
	
		<line style="fill:url(#SVGID_00000098924595233484246630000017228822305200724869_);stroke:url(#SVGID_00000052067543884552151220000003949465144817222055_);stroke-width:3;stroke-linecap:round;stroke-miterlimit:10;" x1="143.7" y1="95.2" x2="143.7" y2="65.8"/>
	
		<linearGradient id="SVGID_00000096751624694167128640000004344069960697126529_" gradientUnits="userSpaceOnUse" x1="150.6171" y1="81.7756" x2="150.6171" y2="81.7756">
		<stop  offset="0" style="stop-color:#7F12BD"/>
		<stop  offset="0.5" style="stop-color:#A931EE"/>
		<stop  offset="1" style="stop-color:#7F12BD"/>
	</linearGradient>
	
		<linearGradient id="SVGID_00000172427038907175123240000007556719453643206794_" gradientUnits="userSpaceOnUse" x1="83.3662" y1="70.9351" x2="98.8768" y2="86.4456" gradientTransform="matrix(-1 0 0 -1 241.7386 160.4659)">
		<stop  offset="0" style="stop-color:#7F12BD"/>
		<stop  offset="0.5" style="stop-color:#A931EE"/>
		<stop  offset="1" style="stop-color:#7F12BD"/>
	</linearGradient>
	
		<line style="fill:url(#SVGID_00000096751624694167128640000004344069960697126529_);stroke:url(#SVGID_00000172427038907175123240000007556719453643206794_);stroke-width:3;stroke-linecap:round;stroke-miterlimit:10;" x1="150.6" y1="95.2" x2="150.6" y2="68.4"/>
	
		<linearGradient id="SVGID_00000143609535438947955430000005661508666759823282_" gradientUnits="userSpaceOnUse" x1="157.2308" y1="87.1278" x2="157.2308" y2="87.1278">
		<stop  offset="0" style="stop-color:#7F12BD"/>
		<stop  offset="0.5" style="stop-color:#A931EE"/>
		<stop  offset="1" style="stop-color:#7F12BD"/>
	</linearGradient>
	
		<linearGradient id="SVGID_00000059273709551405738270000017885547677037309606_" gradientUnits="userSpaceOnUse" x1="77.4515" y1="66.2817" x2="91.5643" y2="80.3945" gradientTransform="matrix(-1 0 0 -1 241.7386 160.4659)">
		<stop  offset="0" style="stop-color:#7F12BD"/>
		<stop  offset="0.5" style="stop-color:#A931EE"/>
		<stop  offset="1" style="stop-color:#7F12BD"/>
	</linearGradient>
	
		<line style="fill:url(#SVGID_00000143609535438947955430000005661508666759823282_);stroke:url(#SVGID_00000059273709551405738270000017885547677037309606_);stroke-width:3;stroke-linecap:round;stroke-miterlimit:10;" x1="157.2" y1="99.1" x2="157.2" y2="75.1"/>
	
		<linearGradient id="SVGID_00000039130636014233900800000012840609112539702954_" gradientUnits="userSpaceOnUse" x1="163.9126" y1="95.2202" x2="163.9126" y2="95.2202">
		<stop  offset="0" style="stop-color:#7F12BD"/>
		<stop  offset="0.5" style="stop-color:#A931EE"/>
		<stop  offset="1" style="stop-color:#7F12BD"/>
	</linearGradient>
	
		<linearGradient id="SVGID_00000173140388730627568440000014115768116661991049_" gradientUnits="userSpaceOnUse" x1="71.4962" y1="58.9159" x2="84.1559" y2="71.5756" gradientTransform="matrix(-1 0 0 -1 241.7386 160.4659)">
		<stop  offset="0" style="stop-color:#7F12BD"/>
		<stop  offset="0.5" style="stop-color:#A931EE"/>
		<stop  offset="1" style="stop-color:#7F12BD"/>
	</linearGradient>
	
		<line style="fill:url(#SVGID_00000039130636014233900800000012840609112539702954_);stroke:url(#SVGID_00000173140388730627568440000014115768116661991049_);stroke-width:3;stroke-linecap:round;stroke-miterlimit:10;" x1="163.9" y1="105.8" x2="163.9" y2="84.7"/>
	
		<linearGradient id="SVGID_00000126286093667017755440000016144688973785948830_" gradientUnits="userSpaceOnUse" x1="170.9353" y1="104.5952" x2="170.9353" y2="104.5952">
		<stop  offset="0" style="stop-color:#7F12BD"/>
		<stop  offset="0.5" style="stop-color:#A931EE"/>
		<stop  offset="1" style="stop-color:#7F12BD"/>
	</linearGradient>
	
		<linearGradient id="SVGID_00000081613210973778583290000002444390534829355945_" gradientUnits="userSpaceOnUse" x1="68.1042" y1="53.1716" x2="73.5025" y2="58.5699" gradientTransform="matrix(-1 0 0 -1 241.7386 160.4659)">
		<stop  offset="0" style="stop-color:#7F12BD"/>
		<stop  offset="0.5" style="stop-color:#A931EE"/>
		<stop  offset="1" style="stop-color:#7F12BD"/>
	</linearGradient>
	
		<line style="fill:url(#SVGID_00000126286093667017755440000016144688973785948830_);stroke:url(#SVGID_00000081613210973778583290000002444390534829355945_);stroke-width:3;stroke-linecap:round;stroke-miterlimit:10;" x1="170.9" y1="107.9" x2="170.9" y2="101.3"/>
	
		<linearGradient id="SVGID_00000070833743901880313620000002081646699948895629_" gradientUnits="userSpaceOnUse" x1="115.6626" y1="180.1534" x2="115.6626" y2="180.1534">
		<stop  offset="0" style="stop-color:#7F12BD"/>
		<stop  offset="0.5" style="stop-color:#A931EE"/>
		<stop  offset="1" style="stop-color:#7F12BD"/>
	</linearGradient>
	
		<linearGradient id="SVGID_00000181061156031982985460000007880965720362754714_" gradientUnits="userSpaceOnUse" x1="76.683" y1="154.266" x2="122.6964" y2="200.2794" gradientTransform="matrix(-1 0 0 -1 215.3523 357.4261)">
		<stop  offset="0" style="stop-color:#7F12BD"/>
		<stop  offset="0.5" style="stop-color:#A931EE"/>
		<stop  offset="1" style="stop-color:#7F12BD"/>
	</linearGradient>
	
		<line style="fill:url(#SVGID_00000070833743901880313620000002081646699948895629_);stroke:url(#SVGID_00000181061156031982985460000007880965720362754714_);stroke-width:3;stroke-linecap:round;stroke-miterlimit:10;" x1="115.7" y1="224" x2="115.7" y2="136.3"/>
	
		<linearGradient id="SVGID_00000042009448431399191490000015013215286445478040_" gradientUnits="userSpaceOnUse" x1="72.1461" y1="151.2575" x2="112.1424" y2="191.2538" gradientTransform="matrix(-1 0 0 -1 215.3523 357.4261)">
		<stop  offset="0" style="stop-color:#7F12BD"/>
		<stop  offset="0.5" style="stop-color:#A931EE"/>
		<stop  offset="1" style="stop-color:#7F12BD"/>
	</linearGradient>
	
		<line style="fill:none;stroke:url(#SVGID_00000042009448431399191490000015013215286445478040_);stroke-width:3;stroke-linecap:round;stroke-miterlimit:10;" x1="123.2" y1="224" x2="123.2" y2="148.3"/>
	
		<linearGradient id="SVGID_00000045585004265950530530000006016644950582399387_" gradientUnits="userSpaceOnUse" x1="65.7966" y1="149.4166" x2="104.8384" y2="188.4584" gradientTransform="matrix(-1 0 0 -1 215.3523 357.4261)">
		<stop  offset="0" style="stop-color:#7F12BD"/>
		<stop  offset="0.5" style="stop-color:#A931EE"/>
		<stop  offset="1" style="stop-color:#7F12BD"/>
	</linearGradient>
	
		<line style="fill:none;stroke:url(#SVGID_00000045585004265950530530000006016644950582399387_);stroke-width:3;stroke-linecap:round;stroke-miterlimit:10;" x1="130" y1="225.4" x2="130" y2="151.6"/>
	
		<linearGradient id="SVGID_00000139252458761191036450000003138956102021682839_" gradientUnits="userSpaceOnUse" x1="61.6035" y1="146.3229" x2="95.8895" y2="180.609" gradientTransform="matrix(-1 0 0 -1 215.3523 357.4261)">
		<stop  offset="0" style="stop-color:#7F12BD"/>
		<stop  offset="0.5" style="stop-color:#A931EE"/>
		<stop  offset="1" style="stop-color:#7F12BD"/>
	</linearGradient>
	
		<line style="fill:none;stroke:url(#SVGID_00000139252458761191036450000003138956102021682839_);stroke-width:3;stroke-linecap:round;stroke-miterlimit:10;" x1="136.6" y1="226.1" x2="136.6" y2="161.8"/>
	
		<linearGradient id="SVGID_00000077282735946968077230000017552550100857340350_" gradientUnits="userSpaceOnUse" x1="53.9074" y1="147.32" x2="90.1878" y2="183.6004" gradientTransform="matrix(-1 0 0 -1 215.3523 357.4261)">
		<stop  offset="0" style="stop-color:#7F12BD"/>
		<stop  offset="0.5" style="stop-color:#A931EE"/>
		<stop  offset="1" style="stop-color:#7F12BD"/>
	</linearGradient>
	
		<line style="fill:none;stroke:url(#SVGID_00000077282735946968077230000017552550100857340350_);stroke-width:3;stroke-linecap:round;stroke-miterlimit:10;" x1="143.3" y1="226.1" x2="143.3" y2="157.8"/>
	
		<linearGradient id="SVGID_00000142138855567732245830000004395086131660106153_" gradientUnits="userSpaceOnUse" x1="46.7228" y1="148.1126" x2="83.1566" y2="184.5465" gradientTransform="matrix(-1 0 0 -1 215.3523 357.4261)">
		<stop  offset="0" style="stop-color:#7F12BD"/>
		<stop  offset="0.5" style="stop-color:#A931EE"/>
		<stop  offset="1" style="stop-color:#7F12BD"/>
	</linearGradient>
	
		<line style="fill:none;stroke:url(#SVGID_00000142138855567732245830000004395086131660106153_);stroke-width:3;stroke-linecap:round;stroke-miterlimit:10;" x1="150.4" y1="225.4" x2="150.4" y2="156.8"/>
	
		<linearGradient id="SVGID_00000072963783477942495870000007915459936642823325_" gradientUnits="userSpaceOnUse" x1="39.7427" y1="149.3655" x2="76.8413" y2="186.4641" gradientTransform="matrix(-1 0 0 -1 215.3523 357.4261)">
		<stop  offset="0" style="stop-color:#7F12BD"/>
		<stop  offset="0.5" style="stop-color:#A931EE"/>
		<stop  offset="1" style="stop-color:#7F12BD"/>
	</linearGradient>
	
		<line style="fill:none;stroke:url(#SVGID_00000072963783477942495870000007915459936642823325_);stroke-width:3;stroke-linecap:round;stroke-miterlimit:10;" x1="157.1" y1="224.5" x2="157.1" y2="154.5"/>
	
		<linearGradient id="SVGID_00000049209290357941442200000003292272578747438509_" gradientUnits="userSpaceOnUse" x1="32.4898" y1="151.7092" x2="69.5714" y2="188.7908" gradientTransform="matrix(-1 0 0 -1 215.3523 357.4261)">
		<stop  offset="0" style="stop-color:#7F12BD"/>
		<stop  offset="0.5" style="stop-color:#A931EE"/>
		<stop  offset="1" style="stop-color:#7F12BD"/>
	</linearGradient>
	
		<line style="fill:none;stroke:url(#SVGID_00000049209290357941442200000003292272578747438509_);stroke-width:3;stroke-linecap:round;stroke-miterlimit:10;" x1="164.3" y1="222.1" x2="164.3" y2="152.2"/>
	
		<linearGradient id="SVGID_00000119827239785549251480000000377341365766032545_" gradientUnits="userSpaceOnUse" x1="26.4046" y1="153.7035" x2="62.1566" y2="189.4556" gradientTransform="matrix(-1 0 0 -1 215.3523 357.4261)">
		<stop  offset="0" style="stop-color:#7F12BD"/>
		<stop  offset="0.5" style="stop-color:#A931EE"/>
		<stop  offset="1" style="stop-color:#7F12BD"/>
	</linearGradient>
	
		<line style="fill:none;stroke:url(#SVGID_00000119827239785549251480000000377341365766032545_);stroke-width:3;stroke-linecap:round;stroke-miterlimit:10;" x1="171.1" y1="219.5" x2="171.1" y2="152.2"/>
	
		<linearGradient id="SVGID_00000028299857679357389780000003853016019706754976_" gradientUnits="userSpaceOnUse" x1="19.9827" y1="156.1197" x2="54.9421" y2="191.0791" gradientTransform="matrix(-1 0 0 -1 215.3523 357.4261)">
		<stop  offset="0" style="stop-color:#7F12BD"/>
		<stop  offset="0.5" style="stop-color:#A931EE"/>
		<stop  offset="1" style="stop-color:#7F12BD"/>
	</linearGradient>
	
		<line style="fill:none;stroke:url(#SVGID_00000028299857679357389780000003853016019706754976_);stroke-width:3;stroke-linecap:round;stroke-miterlimit:10;" x1="177.9" y1="216.7" x2="177.9" y2="151"/>
	
		<linearGradient id="SVGID_00000180365892966619037970000011856952032193897121_" gradientUnits="userSpaceOnUse" x1="13.8938" y1="159.1325" x2="47.0038" y2="192.2425" gradientTransform="matrix(-1 0 0 -1 215.3523 357.4261)">
		<stop  offset="0" style="stop-color:#7F12BD"/>
		<stop  offset="0.5" style="stop-color:#A931EE"/>
		<stop  offset="1" style="stop-color:#7F12BD"/>
	</linearGradient>
	
		<line style="fill:none;stroke:url(#SVGID_00000180365892966619037970000011856952032193897121_);stroke-width:3;stroke-linecap:round;stroke-miterlimit:10;" x1="184.9" y1="212.7" x2="184.9" y2="150.8"/>
	
		<linearGradient id="SVGID_00000173880565337918647400000011139167434816167301_" gradientUnits="userSpaceOnUse" x1="7.8586" y1="162.7632" x2="38.5481" y2="193.4527" gradientTransform="matrix(-1 0 0 -1 215.3523 357.4261)">
		<stop  offset="0" style="stop-color:#7F12BD"/>
		<stop  offset="0.5" style="stop-color:#A931EE"/>
		<stop  offset="1" style="stop-color:#7F12BD"/>
	</linearGradient>
	
		<line style="fill:none;stroke:url(#SVGID_00000173880565337918647400000011139167434816167301_);stroke-width:3;stroke-linecap:round;stroke-miterlimit:10;" x1="192.1" y1="207.9" x2="192.1" y2="150.8"/>
	
		<linearGradient id="SVGID_00000114034657364506746980000004747352913556983949_" gradientUnits="userSpaceOnUse" x1="3.1375" y1="166.1297" x2="30.6055" y2="193.5976" gradientTransform="matrix(-1 0 0 -1 215.3523 357.4261)">
		<stop  offset="0" style="stop-color:#7F12BD"/>
		<stop  offset="0.5" style="stop-color:#A931EE"/>
		<stop  offset="1" style="stop-color:#7F12BD"/>
	</linearGradient>
	
		<line style="fill:none;stroke:url(#SVGID_00000114034657364506746980000004747352913556983949_);stroke-width:3;stroke-linecap:round;stroke-miterlimit:10;" x1="198.5" y1="202.9" x2="198.5" y2="152.2"/>
	
		<linearGradient id="SVGID_00000057849798127517025660000001732498851041885062_" gradientUnits="userSpaceOnUse" x1="-6.1053" y1="176.7874" x2="11.212" y2="194.1047" gradientTransform="matrix(-1 0 0 -1 215.3523 357.4261)">
		<stop  offset="0" style="stop-color:#7F12BD"/>
		<stop  offset="0.5" style="stop-color:#A931EE"/>
		<stop  offset="1" style="stop-color:#7F12BD"/>
	</linearGradient>
	
		<line style="fill:none;stroke:url(#SVGID_00000057849798127517025660000001732498851041885062_);stroke-width:3;stroke-linecap:round;stroke-miterlimit:10;" x1="212.8" y1="187.2" x2="212.8" y2="156.8"/>
	
		<linearGradient id="SVGID_00000049180819419297544950000010826360186155829652_" gradientUnits="userSpaceOnUse" x1="-1.9676" y1="171.0302" x2="21.3924" y2="194.3902" gradientTransform="matrix(-1 0 0 -1 215.3523 357.4261)">
		<stop  offset="0" style="stop-color:#7F12BD"/>
		<stop  offset="0.5" style="stop-color:#A931EE"/>
		<stop  offset="1" style="stop-color:#7F12BD"/>
	</linearGradient>
	
		<line style="fill:none;stroke:url(#SVGID_00000049180819419297544950000010826360186155829652_);stroke-width:3;stroke-linecap:round;stroke-miterlimit:10;" x1="205.6" y1="196" x2="205.6" y2="153.5"/>
	
		<linearGradient id="SVGID_00000043415604469751948470000013961106493888492961_" gradientUnits="userSpaceOnUse" x1="-9.8863" y1="182.699" x2="0.5384" y2="193.1237" gradientTransform="matrix(-1 0 0 -1 215.3523 357.4261)">
		<stop  offset="0" style="stop-color:#7F12BD"/>
		<stop  offset="0.5" style="stop-color:#A931EE"/>
		<stop  offset="1" style="stop-color:#7F12BD"/>
	</linearGradient>
	
		<line style="fill:none;stroke:url(#SVGID_00000043415604469751948470000013961106493888492961_);stroke-width:3;stroke-linecap:round;stroke-miterlimit:10;" x1="220" y1="177.8" x2="220" y2="161.2"/>
	<g>
		
			<image style="overflow:visible;" width="200" height="58" xlink:href="1E4D5252.png"  transform="matrix(1 0 0 1 40.2441 130.2634)">
		</image>
		<g>
			
				<linearGradient id="SVGID_00000154426809793146920070000011275221576918578860_" gradientUnits="userSpaceOnUse" x1="53.9524" y1="162.8174" x2="226.708" y2="162.8174">
				<stop  offset="0" style="stop-color:#7F12BD"/>
				<stop  offset="0.5" style="stop-color:#A931EE"/>
				<stop  offset="1" style="stop-color:#7F12BD"/>
			</linearGradient>
			
				<path style="fill:none;stroke:url(#SVGID_00000154426809793146920070000011275221576918578860_);stroke-width:3;stroke-linecap:round;stroke-miterlimit:10;" d="
				M225.2,165.4c0,0-23.5-35.7-92.1-2.2c-18.4,9-38.4,14.1-58.9,13.5c-5.9-0.2-12.2-0.8-18.8-1.9"/>
		</g>
	</g>
	
		<linearGradient id="SVGID_00000009580968525496065880000010556052497357511321_" gradientUnits="userSpaceOnUse" x1="-12.0151" y1="187.6914" x2="-7.6964" y2="192.0101" gradientTransform="matrix(-1 0 0 -1 215.3523 357.4261)">
		<stop  offset="0" style="stop-color:#7F12BD"/>
		<stop  offset="0.5" style="stop-color:#A931EE"/>
		<stop  offset="1" style="stop-color:#7F12BD"/>
	</linearGradient>
	
		<line style="fill:none;stroke:url(#SVGID_00000009580968525496065880000010556052497357511321_);stroke-width:3;stroke-linecap:round;stroke-miterlimit:10;" x1="225.2" y1="169.8" x2="225.2" y2="165.4"/>
</g>
<g>
	<path class="st37" d="M826.4,206.7c0-1.5,1.2-2.7,2.7-2.7h2.1c1.4,0,2.7,1.2,2.7,2.7v1c0,3.5,0.7,5.2,1.7,6.1c0.8,0.8,2.1,1,3.1,1
		c3.1,0,4.8-1.3,4.8-5.2c0-3.5-3.4-6.2-7-9v0.1c-4.9-3.8-10-7.8-10-15.1c0-8.3,4.4-13.1,12.2-13.1c8,0,12.2,5.1,12.2,14.5v1
		c0,1.5-1.2,2.7-2.7,2.7H846c-1.5,0-2.7-1.2-2.7-2.7v-1c0-4.9-1.6-7.1-4.8-7.1c-3.1,0-4.8,1.7-4.8,5.5c0,3.8,3.6,6.6,7.2,9.5h-0.1
		c4.9,3.8,9.8,7.5,9.8,14.7c0,8.3-4.4,12.7-12.2,12.7c-8.1,0-12.2-4.7-12.2-14.4V206.7z"/>
	<path class="st37" d="M858.6,174.9c0-1.5,1.2-2.7,2.6-2.7h2.1c1.5,0,2.7,1.2,2.7,2.7v33.6c0,3.9,1.2,6.2,4.8,6.2
		c3.8,0,4.8-2.7,4.8-6.2v-33.6c0-1.5,1.2-2.7,2.6-2.7h2.1c1.5,0,2.7,1.2,2.7,2.7v33.6c0,8.3-3.5,13.5-12.1,13.5
		c-8.9,0-12.1-5.7-12.1-13.5V174.9z"/>
	<path class="st37" d="M895.7,222.1c-1.5,0-2.7-1.2-2.7-2.7V175c0-1.5,1.2-2.7,2.7-2.7h7.3c8.6,0,12.5,4.7,12.5,14.3
		c0,6.9-3.2,10.6-3.2,10.6c1.9,2.4,3.2,6.1,3.2,10.6c0,9.5-3.8,14.3-12.5,14.3H895.7z M900.4,179.7v13.9h2.6c3.6,0,5.1-2,5.1-6.9
		c0-4.9-1.5-6.9-5.1-6.9H900.4z M900.4,200.9v14h2.6c3.6,0,5.1-2,5.1-6.9c0-5-1.5-7-5.1-7H900.4z"/>
	<path class="st37" d="M945,219.5c0,1.5-1.2,2.7-2.7,2.7h-15.7c-1.5,0-2.7-1.2-2.7-2.7V175c0-1.5,1.2-2.7,2.7-2.7h2.1
		c1.4,0,2.6,1.2,2.6,2.7v39.8h11c1.5,0,2.7,1.2,2.7,2.7V219.5z"/>
	<path class="st37" d="M959.6,219.5c0,1.5-1.3,2.7-2.7,2.7h-2.1c-1.5,0-2.7-1.2-2.7-2.7V175c0-1.5,1.2-2.7,2.7-2.7h2.1
		c1.4,0,2.7,1.2,2.7,2.7V219.5z"/>
	<path class="st37" d="M980.2,222.1c-1.1,0-2.3-1-2.5-2.1l-2.5-16.6v16c0,1.5-1.3,2.7-2.7,2.7h-2.1c-1.5,0-2.7-1.2-2.7-2.7V175
		c0-1.5,1.2-2.7,2.7-2.7h2.2c1.1,0,2.3,1,2.5,2.1l5.8,29.8l5.8-29.8c0.2-1.1,1.5-2.1,2.6-2.1h2.2c1.5,0,2.7,1.2,2.7,2.7v44.5
		c0,1.5-1.2,2.7-2.7,2.7h-2.1c-1.5,0-2.7-1.2-2.7-2.7v-15.9l-2.4,16.4c-0.3,1.2-1.5,2.1-2.6,2.1H980.2z"/>
	<path class="st37" d="M1022.5,172.4c1.5,0,2.7,1.2,2.7,2.7v2c0,1.5-1.2,2.7-2.7,2.7h-11.3v13.9h9.3c1.5,0,2.7,1.2,2.7,2.7v2
		c0,1.5-1.2,2.7-2.7,2.7h-9.3v14h11.3c1.5,0,2.7,1.2,2.7,2.7v2c0,1.5-1.2,2.7-2.7,2.7h-16c-1.5,0-2.7-1.2-2.7-2.7V175
		c0-1.5,1.2-2.7,2.7-2.7H1022.5z"/>
	<path class="st37" d="M1072.3,222.1c-0.9,0-2.1-0.8-2.4-1.6l-10.3-25.4v24.4c0,1.5-1.3,2.7-2.7,2.7h-2.1c-1.4,0-2.7-1.2-2.7-2.7
		V175c0-1.5,1.3-2.7,2.7-2.7h1.8c1,0,2.1,0.8,2.4,1.6l10.3,25.4V175c0-1.5,1.2-2.7,2.7-2.7h2.1c1.5,0,2.7,1.2,2.7,2.7v44.5
		c0,1.5-1.2,2.7-2.7,2.7H1072.3z"/>
	<path class="st37" d="M1085.8,186.8c0-9.3,4.1-14.4,12.1-14.4c8.1,0,12.1,5,12.1,14.4v20.9c0,5.8-1.6,9.2-3.8,11.5
		c-2.4,2.4-5.5,3-8.3,3c-2.7,0-5.8-0.6-8.2-3c-2.3-2.3-3.9-5.7-3.9-11.5V186.8z M1093.2,207.7c0,4.9,1.6,7.2,4.7,7.2
		c3.1,0,4.7-2.1,4.7-7.2v-20.9c0-4.9-1.6-7.1-4.7-7.1c-3.2,0-4.7,2.3-4.7,7.1V207.7z"/>
	<path class="st37" d="M1133.1,202.5l6.6-28.1c0.2-1.1,1.5-2.1,2.6-2.1h2.1c1.8,0,3,1.6,2.6,3.2l-10.5,44.5
		c-0.3,1.2-1.5,2.1-2.6,2.1h-1.6c-1.2,0-2.4-0.9-2.6-2.1l-10.5-44.5c-0.4-1.7,0.7-3.2,2.6-3.2h2.1c1.1,0,2.3,1,2.6,2.1L1133.1,202.5
		z"/>
</g>
</svg>
