<?xml version="1.0" encoding="utf-8"?>
<!-- Generator: Adobe Illustrator 27.8.1, SVG Export Plug-In . SVG Version: 6.00 Build 0)  -->
<svg version="1.1" id="logo" xmlns="http://www.w3.org/2000/svg" xmlns:xlink="http://www.w3.org/1999/xlink" x="0px" y="0px"
	 viewBox="0 0 356.7 343.9" style="enable-background:new 0 0 356.7 343.9;" xml:space="preserve">
<style type="text/css">
	.st0{fill:none;stroke:url(#SVGID_1_);stroke-width:3;stroke-linecap:round;stroke-miterlimit:10;}
	
		.st1{fill:none;stroke:url(#SVGID_00000088123507642155044540000015572776991332023984_);stroke-width:3;stroke-linecap:round;stroke-miterlimit:10;}
	
		.st2{fill:none;stroke:url(#SVGID_00000143617099881999618990000014092883623784090241_);stroke-width:3;stroke-linecap:round;stroke-miterlimit:10;}
	
		.st3{fill:none;stroke:url(#SVGID_00000016071811207544432920000012120501453659216814_);stroke-width:3;stroke-linecap:round;stroke-miterlimit:10;}
	
		.st4{fill:none;stroke:url(#SVGID_00000004516933574336552720000007812505491902868117_);stroke-width:3;stroke-linecap:round;stroke-miterlimit:10;}
	
		.st5{fill:none;stroke:url(#SVGID_00000084494251087479912300000006535075189050727570_);stroke-width:3;stroke-linecap:round;stroke-miterlimit:10;}
	
		.st6{fill:none;stroke:url(#SVGID_00000061455798956803757030000007098572416297084809_);stroke-width:3;stroke-linecap:round;stroke-miterlimit:10;}
	
		.st7{fill:none;stroke:url(#SVGID_00000031197558315234724240000003389251952049248901_);stroke-width:3;stroke-linecap:round;stroke-miterlimit:10;}
	
		.st8{fill:none;stroke:url(#SVGID_00000107578110668259715270000002808436679961239740_);stroke-width:3;stroke-linecap:round;stroke-miterlimit:10;}
	
		.st9{fill:none;stroke:url(#SVGID_00000096031631143378264280000000015758306998500757_);stroke-width:3;stroke-linecap:round;stroke-miterlimit:10;}
	
		.st10{fill:none;stroke:url(#SVGID_00000118397580651747078290000012969466180013520286_);stroke-width:3;stroke-linecap:round;stroke-miterlimit:10;}
	
		.st11{fill:none;stroke:url(#SVGID_00000170270977692257530490000012969085005627920543_);stroke-width:3;stroke-linecap:round;stroke-miterlimit:10;}
	
		.st12{fill:none;stroke:url(#SVGID_00000132775813919875896790000015285810513730436232_);stroke-width:3;stroke-linecap:round;stroke-miterlimit:10;}
	
		.st13{fill:none;stroke:url(#SVGID_00000081648796047684564720000002896102995339419289_);stroke-width:3;stroke-linecap:round;stroke-miterlimit:10;}
	
		.st14{fill:none;stroke:url(#SVGID_00000067933175265002048900000001822422851774055306_);stroke-width:3;stroke-linecap:round;stroke-miterlimit:10;}
	
		.st15{fill:none;stroke:url(#SVGID_00000183242055566356445560000003194119680948055731_);stroke-width:3;stroke-linecap:round;stroke-miterlimit:10;}
	
		.st16{fill:none;stroke:url(#SVGID_00000140725701568389017320000003890624646110104505_);stroke-width:3;stroke-linecap:round;stroke-miterlimit:10;}
	
		.st17{fill:none;stroke:url(#SVGID_00000126305335438137558480000010816216268651239299_);stroke-width:3;stroke-linecap:round;stroke-miterlimit:10;}
	
		.st18{fill:none;stroke:url(#SVGID_00000031181709986530050400000015632804843908218020_);stroke-width:3;stroke-linecap:round;stroke-miterlimit:10;}
	
		.st19{fill:none;stroke:url(#SVGID_00000055686860477011827490000006088391884628446872_);stroke-width:3;stroke-linecap:round;stroke-miterlimit:10;}
	
		.st20{fill:none;stroke:url(#SVGID_00000093888579089675583540000008649397440713517497_);stroke-width:3;stroke-linecap:round;stroke-miterlimit:10;}
	
		.st21{fill:none;stroke:url(#SVGID_00000111885697070381259090000003527366041478952325_);stroke-width:3;stroke-linecap:round;stroke-miterlimit:10;}
	
		.st22{fill:none;stroke:url(#SVGID_00000127740109420182159250000016599791669720568743_);stroke-width:3;stroke-linecap:round;stroke-miterlimit:10;}
	
		.st23{fill:none;stroke:url(#SVGID_00000157269070590667820690000011442099739789797054_);stroke-width:3;stroke-linecap:round;stroke-miterlimit:10;}
	
		.st24{fill:none;stroke:url(#SVGID_00000139262937791906722210000001596126231528724639_);stroke-width:3;stroke-linecap:round;stroke-miterlimit:10;}
	
		.st25{fill:none;stroke:url(#SVGID_00000127748952327442644820000007858252195989201802_);stroke-width:3;stroke-linecap:round;stroke-miterlimit:10;}
	
		.st26{fill:none;stroke:url(#SVGID_00000149369196894129815230000006464052995888025763_);stroke-width:3;stroke-linecap:round;stroke-miterlimit:10;}
	
		.st27{fill:none;stroke:url(#SVGID_00000021832508609582508780000008579102530511291012_);stroke-width:3;stroke-linecap:round;stroke-miterlimit:10;}
	
		.st28{fill:none;stroke:url(#SVGID_00000037652798380813434130000014197234377276866230_);stroke-width:3;stroke-linecap:round;stroke-miterlimit:10;}
	
		.st29{fill:none;stroke:url(#SVGID_00000144315630593782003270000001518807064096333756_);stroke-width:3;stroke-linecap:round;stroke-miterlimit:10;}
	
		.st30{fill:none;stroke:url(#SVGID_00000121959369783374852800000006767088225713838738_);stroke-width:3;stroke-linecap:round;stroke-miterlimit:10;}
	
		.st31{fill:none;stroke:url(#SVGID_00000114073983540319897140000009862789381371900078_);stroke-width:3;stroke-linecap:round;stroke-miterlimit:10;}
	
		.st32{fill:none;stroke:url(#SVGID_00000100352100011218693530000011110191473673248937_);stroke-width:3;stroke-linecap:round;stroke-miterlimit:10;}
	
		.st33{fill:none;stroke:url(#SVGID_00000023246542368637918860000004153539207719166353_);stroke-width:3;stroke-linecap:round;stroke-miterlimit:10;}
	
		.st34{fill:none;stroke:url(#SVGID_00000054967388218063177950000011040358261003898026_);stroke-width:3;stroke-linecap:round;stroke-miterlimit:10;}
	
		.st35{fill:none;stroke:url(#SVGID_00000119081537822873216600000016888628026956669073_);stroke-width:3;stroke-linecap:round;stroke-miterlimit:10;}
	
		.st36{fill:none;stroke:url(#SVGID_00000034059962775175114300000015802161129912557224_);stroke-width:3;stroke-linecap:round;stroke-miterlimit:10;}
	.st37{fill:#D290F9;}
</style>
<g>
	<linearGradient id="SVGID_1_" gradientUnits="userSpaceOnUse" x1="98.0033" y1="150.8391" x2="83.7116" y2="136.5473">
		<stop  offset="0" style="stop-color:#7F12BD"/>
		<stop  offset="0.5" style="stop-color:#A931EE"/>
		<stop  offset="1" style="stop-color:#7F12BD"/>
	</linearGradient>
	<line class="st0" x1="90.9" y1="131.5" x2="90.9" y2="155.9"/>
	
		<linearGradient id="SVGID_00000142142055271657774370000001985135277733885575_" gradientUnits="userSpaceOnUse" x1="115.4408" y1="163.0607" x2="80.1832" y2="127.803">
		<stop  offset="0" style="stop-color:#7F12BD"/>
		<stop  offset="0.5" style="stop-color:#A931EE"/>
		<stop  offset="1" style="stop-color:#7F12BD"/>
	</linearGradient>
	
		<line style="fill:none;stroke:url(#SVGID_00000142142055271657774370000001985135277733885575_);stroke-width:3;stroke-linecap:round;stroke-miterlimit:10;" x1="97.8" y1="112.3" x2="97.8" y2="178.6"/>
	
		<linearGradient id="SVGID_00000093138544437311165790000015921850868126078624_" gradientUnits="userSpaceOnUse" x1="127.5318" y1="167.947" x2="79.5923" y2="120.0075">
		<stop  offset="0" style="stop-color:#7F12BD"/>
		<stop  offset="0.5" style="stop-color:#A931EE"/>
		<stop  offset="1" style="stop-color:#7F12BD"/>
	</linearGradient>
	
		<line style="fill:none;stroke:url(#SVGID_00000093138544437311165790000015921850868126078624_);stroke-width:3;stroke-linecap:round;stroke-miterlimit:10;" x1="103.6" y1="98.2" x2="103.6" y2="189.8"/>
	
		<linearGradient id="SVGID_00000009564012317167353060000008901030287304127658_" gradientUnits="userSpaceOnUse" x1="137.8982" y1="167.9442" x2="84.1803" y2="114.2263">
		<stop  offset="0" style="stop-color:#7F12BD"/>
		<stop  offset="0.5" style="stop-color:#A931EE"/>
		<stop  offset="1" style="stop-color:#7F12BD"/>
	</linearGradient>
	
		<line style="fill:none;stroke:url(#SVGID_00000009564012317167353060000008901030287304127658_);stroke-width:3;stroke-linecap:round;stroke-miterlimit:10;" x1="111" y1="89.5" x2="111" y2="192.7"/>
	
		<linearGradient id="SVGID_00000101064171468843497830000017826351587181016456_" gradientUnits="userSpaceOnUse" x1="148.9607" y1="172.0521" x2="87.0269" y2="110.1183">
		<stop  offset="0" style="stop-color:#7F12BD"/>
		<stop  offset="0.5" style="stop-color:#A931EE"/>
		<stop  offset="1" style="stop-color:#7F12BD"/>
	</linearGradient>
	
		<line style="fill:none;stroke:url(#SVGID_00000101064171468843497830000017826351587181016456_);stroke-width:3;stroke-linecap:round;stroke-miterlimit:10;" x1="118" y1="81.3" x2="118" y2="200.9"/>
	
		<linearGradient id="SVGID_00000037685150970659740000000008370869801345597601_" gradientUnits="userSpaceOnUse" x1="158.4636" y1="174.5152" x2="91.2968" y2="107.3484">
		<stop  offset="0" style="stop-color:#7F12BD"/>
		<stop  offset="0.5" style="stop-color:#A931EE"/>
		<stop  offset="1" style="stop-color:#7F12BD"/>
	</linearGradient>
	
		<line style="fill:none;stroke:url(#SVGID_00000037685150970659740000000008370869801345597601_);stroke-width:3;stroke-linecap:round;stroke-miterlimit:10;" x1="124.9" y1="75.9" x2="124.9" y2="206"/>
	
		<linearGradient id="SVGID_00000103945729126313723340000017779489970071753604_" gradientUnits="userSpaceOnUse" x1="109.687" y1="104.4933" x2="181.1663" y2="175.9726" gradientTransform="matrix(-1 0 0 -1 276.6136 281.8636)">
		<stop  offset="0" style="stop-color:#7F12BD"/>
		<stop  offset="0.5" style="stop-color:#A931EE"/>
		<stop  offset="1" style="stop-color:#7F12BD"/>
	</linearGradient>
	
		<line style="fill:none;stroke:url(#SVGID_00000103945729126313723340000017779489970071753604_);stroke-width:3;stroke-linecap:round;stroke-miterlimit:10;" x1="131.2" y1="211" x2="131.2" y2="72.3"/>
	
		<linearGradient id="SVGID_00000124145587385969980730000017924503689322636722_" gradientUnits="userSpaceOnUse" x1="100.3717" y1="101.945" x2="175.4134" y2="176.9868" gradientTransform="matrix(-1 0 0 -1 276.6136 281.8636)">
		<stop  offset="0" style="stop-color:#7F12BD"/>
		<stop  offset="0.5" style="stop-color:#A931EE"/>
		<stop  offset="1" style="stop-color:#7F12BD"/>
	</linearGradient>
	
		<line style="fill:none;stroke:url(#SVGID_00000124145587385969980730000017924503689322636722_);stroke-width:3;stroke-linecap:round;stroke-miterlimit:10;" x1="138.7" y1="215.3" x2="138.7" y2="69.5"/>
	
		<linearGradient id="SVGID_00000018203020312555343850000007332906947417359785_" gradientUnits="userSpaceOnUse" x1="92.2111" y1="100.151" x2="170.8921" y2="178.832" gradientTransform="matrix(-1 0 0 -1 276.6136 281.8636)">
		<stop  offset="0" style="stop-color:#7F12BD"/>
		<stop  offset="0.5" style="stop-color:#A931EE"/>
		<stop  offset="1" style="stop-color:#7F12BD"/>
	</linearGradient>
	
		<line style="fill:none;stroke:url(#SVGID_00000018203020312555343850000007332906947417359785_);stroke-width:3;stroke-linecap:round;stroke-miterlimit:10;" x1="145.1" y1="218.9" x2="145.1" y2="65.8"/>
	
		<linearGradient id="SVGID_00000097500455495788335330000012880236174915228590_" gradientUnits="userSpaceOnUse" x1="150.9423" y1="180.4342" x2="69.0567" y2="98.5487" gradientTransform="matrix(1 0 0 1 42.375 2.8807)">
		<stop  offset="0" style="stop-color:#7F12BD"/>
		<stop  offset="0.5" style="stop-color:#A931EE"/>
		<stop  offset="1" style="stop-color:#7F12BD"/>
	</linearGradient>
	
		<line style="fill:none;stroke:url(#SVGID_00000097500455495788335330000012880236174915228590_);stroke-width:3;stroke-linecap:round;stroke-miterlimit:10;" x1="152.4" y1="62.6" x2="152.4" y2="222.1"/>
	
		<linearGradient id="SVGID_00000111159715238563494090000009918129615338659766_" gradientUnits="userSpaceOnUse" x1="129.2093" y1="94.2183" x2="104.8011" y2="69.8101" gradientTransform="matrix(1 0 0 1 42.375 2.8807)">
		<stop  offset="0" style="stop-color:#7F12BD"/>
		<stop  offset="0.5" style="stop-color:#A931EE"/>
		<stop  offset="1" style="stop-color:#7F12BD"/>
	</linearGradient>
	
		<line style="fill:none;stroke:url(#SVGID_00000111159715238563494090000009918129615338659766_);stroke-width:3;stroke-linecap:round;stroke-miterlimit:10;" x1="159.4" y1="62.6" x2="159.4" y2="107.2"/>
	
		<linearGradient id="SVGID_00000158710467711359256480000009987006153138408878_" gradientUnits="userSpaceOnUse" x1="134.2462" y1="89.3859" x2="113.0596" y2="68.1993" gradientTransform="matrix(1 0 0 1 42.375 2.8807)">
		<stop  offset="0" style="stop-color:#7F12BD"/>
		<stop  offset="0.5" style="stop-color:#A931EE"/>
		<stop  offset="1" style="stop-color:#7F12BD"/>
	</linearGradient>
	
		<line style="fill:none;stroke:url(#SVGID_00000158710467711359256480000009987006153138408878_);stroke-width:3;stroke-linecap:round;stroke-miterlimit:10;" x1="166" y1="62.6" x2="166" y2="100.7"/>
	
		<linearGradient id="SVGID_00000109020395229141631130000004741161071617475750_" gradientUnits="userSpaceOnUse" x1="134.4327" y1="70.5771" x2="154.4433" y2="90.5876" gradientTransform="matrix(-1 0 0 -1 317.0114 160.4659)">
		<stop  offset="0" style="stop-color:#7F12BD"/>
		<stop  offset="0.5" style="stop-color:#A931EE"/>
		<stop  offset="1" style="stop-color:#7F12BD"/>
	</linearGradient>
	
		<line style="fill:none;stroke:url(#SVGID_00000109020395229141631130000004741161071617475750_);stroke-width:3;stroke-linecap:round;stroke-miterlimit:10;" x1="172.6" y1="97.8" x2="172.6" y2="62"/>
	
		<linearGradient id="SVGID_00000159438099602084455280000006575089027644921745_" gradientUnits="userSpaceOnUse" x1="128.1685" y1="71.1652" x2="147.0029" y2="89.9996" gradientTransform="matrix(-1 0 0 -1 317.0114 160.4659)">
		<stop  offset="0" style="stop-color:#7F12BD"/>
		<stop  offset="0.5" style="stop-color:#A931EE"/>
		<stop  offset="1" style="stop-color:#7F12BD"/>
	</linearGradient>
	
		<line style="fill:none;stroke:url(#SVGID_00000159438099602084455280000006575089027644921745_);stroke-width:3;stroke-linecap:round;stroke-miterlimit:10;" x1="179.4" y1="96.6" x2="179.4" y2="63.2"/>
	
		<linearGradient id="SVGID_00000125583497515893809200000004529863834019593882_" gradientUnits="userSpaceOnUse" x1="122.2282" y1="71.5828" x2="139.0342" y2="88.3888" gradientTransform="matrix(-1 0 0 -1 317.0114 160.4659)">
		<stop  offset="0" style="stop-color:#7F12BD"/>
		<stop  offset="0.5" style="stop-color:#A931EE"/>
		<stop  offset="1" style="stop-color:#7F12BD"/>
	</linearGradient>
	
		<line style="fill:none;stroke:url(#SVGID_00000125583497515893809200000004529863834019593882_);stroke-width:3;stroke-linecap:round;stroke-miterlimit:10;" x1="186.4" y1="95.2" x2="186.4" y2="65.8"/>
	
		<linearGradient id="SVGID_00000009570570325181237890000015041543106637251513_" gradientUnits="userSpaceOnUse" x1="115.9214" y1="70.9351" x2="131.4319" y2="86.4456" gradientTransform="matrix(-1 0 0 -1 317.0114 160.4659)">
		<stop  offset="0" style="stop-color:#7F12BD"/>
		<stop  offset="0.5" style="stop-color:#A931EE"/>
		<stop  offset="1" style="stop-color:#7F12BD"/>
	</linearGradient>
	
		<line style="fill:none;stroke:url(#SVGID_00000009570570325181237890000015041543106637251513_);stroke-width:3;stroke-linecap:round;stroke-miterlimit:10;" x1="193.3" y1="95.2" x2="193.3" y2="68.4"/>
	
		<linearGradient id="SVGID_00000010293239742164877930000008375209616084354467_" gradientUnits="userSpaceOnUse" x1="110.0066" y1="66.2817" x2="124.1194" y2="80.3945" gradientTransform="matrix(-1 0 0 -1 317.0114 160.4659)">
		<stop  offset="0" style="stop-color:#7F12BD"/>
		<stop  offset="0.5" style="stop-color:#A931EE"/>
		<stop  offset="1" style="stop-color:#7F12BD"/>
	</linearGradient>
	
		<line style="fill:none;stroke:url(#SVGID_00000010293239742164877930000008375209616084354467_);stroke-width:3;stroke-linecap:round;stroke-miterlimit:10;" x1="199.9" y1="99.1" x2="199.9" y2="75.1"/>
	
		<linearGradient id="SVGID_00000013885741117897684080000012861731595532227253_" gradientUnits="userSpaceOnUse" x1="104.0513" y1="58.9159" x2="116.711" y2="71.5756" gradientTransform="matrix(-1 0 0 -1 317.0114 160.4659)">
		<stop  offset="0" style="stop-color:#7F12BD"/>
		<stop  offset="0.5" style="stop-color:#A931EE"/>
		<stop  offset="1" style="stop-color:#7F12BD"/>
	</linearGradient>
	
		<line style="fill:none;stroke:url(#SVGID_00000013885741117897684080000012861731595532227253_);stroke-width:3;stroke-linecap:round;stroke-miterlimit:10;" x1="206.6" y1="105.8" x2="206.6" y2="84.7"/>
	
		<linearGradient id="SVGID_00000112622417685647492690000005863829449707771796_" gradientUnits="userSpaceOnUse" x1="100.6593" y1="53.1716" x2="106.0576" y2="58.5699" gradientTransform="matrix(-1 0 0 -1 317.0114 160.4659)">
		<stop  offset="0" style="stop-color:#7F12BD"/>
		<stop  offset="0.5" style="stop-color:#A931EE"/>
		<stop  offset="1" style="stop-color:#7F12BD"/>
	</linearGradient>
	
		<line style="fill:none;stroke:url(#SVGID_00000112622417685647492690000005863829449707771796_);stroke-width:3;stroke-linecap:round;stroke-miterlimit:10;" x1="213.7" y1="107.9" x2="213.7" y2="101.3"/>
	
		<linearGradient id="SVGID_00000067222631632247854950000017509197977997706120_" gradientUnits="userSpaceOnUse" x1="109.2381" y1="154.266" x2="155.2515" y2="200.2794" gradientTransform="matrix(-1 0 0 -1 290.625 357.4261)">
		<stop  offset="0" style="stop-color:#7F12BD"/>
		<stop  offset="0.5" style="stop-color:#A931EE"/>
		<stop  offset="1" style="stop-color:#7F12BD"/>
	</linearGradient>
	
		<line style="fill:none;stroke:url(#SVGID_00000067222631632247854950000017509197977997706120_);stroke-width:3;stroke-linecap:round;stroke-miterlimit:10;" x1="158.4" y1="224" x2="158.4" y2="136.3"/>
	
		<linearGradient id="SVGID_00000070840506896704734780000001577509529677120419_" gradientUnits="userSpaceOnUse" x1="104.7012" y1="151.2575" x2="144.6975" y2="191.2538" gradientTransform="matrix(-1 0 0 -1 290.625 357.4261)">
		<stop  offset="0" style="stop-color:#7F12BD"/>
		<stop  offset="0.5" style="stop-color:#A931EE"/>
		<stop  offset="1" style="stop-color:#7F12BD"/>
	</linearGradient>
	
		<line style="fill:none;stroke:url(#SVGID_00000070840506896704734780000001577509529677120419_);stroke-width:3;stroke-linecap:round;stroke-miterlimit:10;" x1="165.9" y1="224" x2="165.9" y2="148.3"/>
	
		<linearGradient id="SVGID_00000171710882492292485070000000764427639308244158_" gradientUnits="userSpaceOnUse" x1="98.3518" y1="149.4166" x2="137.3935" y2="188.4584" gradientTransform="matrix(-1 0 0 -1 290.625 357.4261)">
		<stop  offset="0" style="stop-color:#7F12BD"/>
		<stop  offset="0.5" style="stop-color:#A931EE"/>
		<stop  offset="1" style="stop-color:#7F12BD"/>
	</linearGradient>
	
		<line style="fill:none;stroke:url(#SVGID_00000171710882492292485070000000764427639308244158_);stroke-width:3;stroke-linecap:round;stroke-miterlimit:10;" x1="172.8" y1="225.4" x2="172.8" y2="151.6"/>
	
		<linearGradient id="SVGID_00000054228641801146687340000000826161574276962982_" gradientUnits="userSpaceOnUse" x1="94.1586" y1="146.3229" x2="128.4447" y2="180.609" gradientTransform="matrix(-1 0 0 -1 290.625 357.4261)">
		<stop  offset="0" style="stop-color:#7F12BD"/>
		<stop  offset="0.5" style="stop-color:#A931EE"/>
		<stop  offset="1" style="stop-color:#7F12BD"/>
	</linearGradient>
	
		<line style="fill:none;stroke:url(#SVGID_00000054228641801146687340000000826161574276962982_);stroke-width:3;stroke-linecap:round;stroke-miterlimit:10;" x1="179.3" y1="226.1" x2="179.3" y2="161.8"/>
	
		<linearGradient id="SVGID_00000088098378215171126370000006880375256835061694_" gradientUnits="userSpaceOnUse" x1="86.4626" y1="147.32" x2="122.743" y2="183.6004" gradientTransform="matrix(-1 0 0 -1 290.625 357.4261)">
		<stop  offset="0" style="stop-color:#7F12BD"/>
		<stop  offset="0.5" style="stop-color:#A931EE"/>
		<stop  offset="1" style="stop-color:#7F12BD"/>
	</linearGradient>
	
		<line style="fill:none;stroke:url(#SVGID_00000088098378215171126370000006880375256835061694_);stroke-width:3;stroke-linecap:round;stroke-miterlimit:10;" x1="186" y1="226.1" x2="186" y2="157.8"/>
	
		<linearGradient id="SVGID_00000047032943814940365700000004067439464331446684_" gradientUnits="userSpaceOnUse" x1="79.2779" y1="148.1126" x2="115.7117" y2="184.5465" gradientTransform="matrix(-1 0 0 -1 290.625 357.4261)">
		<stop  offset="0" style="stop-color:#7F12BD"/>
		<stop  offset="0.5" style="stop-color:#A931EE"/>
		<stop  offset="1" style="stop-color:#7F12BD"/>
	</linearGradient>
	
		<line style="fill:none;stroke:url(#SVGID_00000047032943814940365700000004067439464331446684_);stroke-width:3;stroke-linecap:round;stroke-miterlimit:10;" x1="193.1" y1="225.4" x2="193.1" y2="156.8"/>
	
		<linearGradient id="SVGID_00000014627410366941397930000009396065888883598730_" gradientUnits="userSpaceOnUse" x1="72.2978" y1="149.3655" x2="109.3964" y2="186.4641" gradientTransform="matrix(-1 0 0 -1 290.625 357.4261)">
		<stop  offset="0" style="stop-color:#7F12BD"/>
		<stop  offset="0.5" style="stop-color:#A931EE"/>
		<stop  offset="1" style="stop-color:#7F12BD"/>
	</linearGradient>
	
		<line style="fill:none;stroke:url(#SVGID_00000014627410366941397930000009396065888883598730_);stroke-width:3;stroke-linecap:round;stroke-miterlimit:10;" x1="199.8" y1="224.5" x2="199.8" y2="154.5"/>
	
		<linearGradient id="SVGID_00000073708107360797430080000010376713403271828414_" gradientUnits="userSpaceOnUse" x1="65.0449" y1="151.7092" x2="102.1265" y2="188.7908" gradientTransform="matrix(-1 0 0 -1 290.625 357.4261)">
		<stop  offset="0" style="stop-color:#7F12BD"/>
		<stop  offset="0.5" style="stop-color:#A931EE"/>
		<stop  offset="1" style="stop-color:#7F12BD"/>
	</linearGradient>
	
		<line style="fill:none;stroke:url(#SVGID_00000073708107360797430080000010376713403271828414_);stroke-width:3;stroke-linecap:round;stroke-miterlimit:10;" x1="207" y1="222.1" x2="207" y2="152.2"/>
	
		<linearGradient id="SVGID_00000107568600230598552170000012740909823927586231_" gradientUnits="userSpaceOnUse" x1="58.9597" y1="153.7035" x2="94.7117" y2="189.4556" gradientTransform="matrix(-1 0 0 -1 290.625 357.4261)">
		<stop  offset="0" style="stop-color:#7F12BD"/>
		<stop  offset="0.5" style="stop-color:#A931EE"/>
		<stop  offset="1" style="stop-color:#7F12BD"/>
	</linearGradient>
	
		<line style="fill:none;stroke:url(#SVGID_00000107568600230598552170000012740909823927586231_);stroke-width:3;stroke-linecap:round;stroke-miterlimit:10;" x1="213.8" y1="219.5" x2="213.8" y2="152.2"/>
	
		<linearGradient id="SVGID_00000121280542468165638490000006027437945408867457_" gradientUnits="userSpaceOnUse" x1="52.5378" y1="156.1197" x2="87.4972" y2="191.0791" gradientTransform="matrix(-1 0 0 -1 290.625 357.4261)">
		<stop  offset="0" style="stop-color:#7F12BD"/>
		<stop  offset="0.5" style="stop-color:#A931EE"/>
		<stop  offset="1" style="stop-color:#7F12BD"/>
	</linearGradient>
	
		<line style="fill:none;stroke:url(#SVGID_00000121280542468165638490000006027437945408867457_);stroke-width:3;stroke-linecap:round;stroke-miterlimit:10;" x1="220.6" y1="216.7" x2="220.6" y2="151"/>
	
		<linearGradient id="SVGID_00000098220705750068744900000009965433781544245392_" gradientUnits="userSpaceOnUse" x1="46.4489" y1="159.1325" x2="79.5589" y2="192.2425" gradientTransform="matrix(-1 0 0 -1 290.625 357.4261)">
		<stop  offset="0" style="stop-color:#7F12BD"/>
		<stop  offset="0.5" style="stop-color:#A931EE"/>
		<stop  offset="1" style="stop-color:#7F12BD"/>
	</linearGradient>
	
		<line style="fill:none;stroke:url(#SVGID_00000098220705750068744900000009965433781544245392_);stroke-width:3;stroke-linecap:round;stroke-miterlimit:10;" x1="227.6" y1="212.7" x2="227.6" y2="150.8"/>
	
		<linearGradient id="SVGID_00000005989245958507466730000004188364752273710246_" gradientUnits="userSpaceOnUse" x1="40.4137" y1="162.7632" x2="71.1032" y2="193.4527" gradientTransform="matrix(-1 0 0 -1 290.625 357.4261)">
		<stop  offset="0" style="stop-color:#7F12BD"/>
		<stop  offset="0.5" style="stop-color:#A931EE"/>
		<stop  offset="1" style="stop-color:#7F12BD"/>
	</linearGradient>
	
		<line style="fill:none;stroke:url(#SVGID_00000005989245958507466730000004188364752273710246_);stroke-width:3;stroke-linecap:round;stroke-miterlimit:10;" x1="234.9" y1="207.9" x2="234.9" y2="150.8"/>
	
		<linearGradient id="SVGID_00000034796212359452975190000017296921992292351672_" gradientUnits="userSpaceOnUse" x1="35.6927" y1="166.1297" x2="63.1606" y2="193.5976" gradientTransform="matrix(-1 0 0 -1 290.625 357.4261)">
		<stop  offset="0" style="stop-color:#7F12BD"/>
		<stop  offset="0.5" style="stop-color:#A931EE"/>
		<stop  offset="1" style="stop-color:#7F12BD"/>
	</linearGradient>
	
		<line style="fill:none;stroke:url(#SVGID_00000034796212359452975190000017296921992292351672_);stroke-width:3;stroke-linecap:round;stroke-miterlimit:10;" x1="241.2" y1="202.9" x2="241.2" y2="152.2"/>
	
		<linearGradient id="SVGID_00000127042916099605182140000002495570365850326187_" gradientUnits="userSpaceOnUse" x1="26.4498" y1="176.7874" x2="43.7671" y2="194.1047" gradientTransform="matrix(-1 0 0 -1 290.625 357.4261)">
		<stop  offset="0" style="stop-color:#7F12BD"/>
		<stop  offset="0.5" style="stop-color:#A931EE"/>
		<stop  offset="1" style="stop-color:#7F12BD"/>
	</linearGradient>
	
		<line style="fill:none;stroke:url(#SVGID_00000127042916099605182140000002495570365850326187_);stroke-width:3;stroke-linecap:round;stroke-miterlimit:10;" x1="255.5" y1="187.2" x2="255.5" y2="156.8"/>
	
		<linearGradient id="SVGID_00000071558821175992235590000011770243689957713280_" gradientUnits="userSpaceOnUse" x1="30.5876" y1="171.0302" x2="53.9475" y2="194.3902" gradientTransform="matrix(-1 0 0 -1 290.625 357.4261)">
		<stop  offset="0" style="stop-color:#7F12BD"/>
		<stop  offset="0.5" style="stop-color:#A931EE"/>
		<stop  offset="1" style="stop-color:#7F12BD"/>
	</linearGradient>
	
		<line style="fill:none;stroke:url(#SVGID_00000071558821175992235590000011770243689957713280_);stroke-width:3;stroke-linecap:round;stroke-miterlimit:10;" x1="248.4" y1="196" x2="248.4" y2="153.5"/>
	
		<linearGradient id="SVGID_00000062152530538844107010000005251965361599676330_" gradientUnits="userSpaceOnUse" x1="22.6688" y1="182.699" x2="33.0935" y2="193.1237" gradientTransform="matrix(-1 0 0 -1 290.625 357.4261)">
		<stop  offset="0" style="stop-color:#7F12BD"/>
		<stop  offset="0.5" style="stop-color:#A931EE"/>
		<stop  offset="1" style="stop-color:#7F12BD"/>
	</linearGradient>
	
		<line style="fill:none;stroke:url(#SVGID_00000062152530538844107010000005251965361599676330_);stroke-width:3;stroke-linecap:round;stroke-miterlimit:10;" x1="262.7" y1="177.8" x2="262.7" y2="161.2"/>
	<g>
		
			<image style="overflow:visible;" width="199" height="58" xlink:href="84CA2766.png"  transform="matrix(1 0 0 1 83.8805 130.2634)">
		</image>
		<g>
			
				<linearGradient id="SVGID_00000130647061792147532970000013336258962807484341_" gradientUnits="userSpaceOnUse" x1="96.67" y1="162.8174" x2="269.4256" y2="162.8174">
				<stop  offset="0" style="stop-color:#7F12BD"/>
				<stop  offset="0.5" style="stop-color:#A931EE"/>
				<stop  offset="1" style="stop-color:#7F12BD"/>
			</linearGradient>
			
				<path style="fill:none;stroke:url(#SVGID_00000130647061792147532970000013336258962807484341_);stroke-width:3;stroke-linecap:round;stroke-miterlimit:10;" d="
				M267.9,165.4c0,0-23.5-35.7-92.1-2.2c-18.4,9-38.4,14.1-58.9,13.5c-5.9-0.2-12.2-0.8-18.8-1.9"/>
		</g>
	</g>
	
		<linearGradient id="SVGID_00000086655177658995161520000004690657650154817172_" gradientUnits="userSpaceOnUse" x1="20.54" y1="187.6914" x2="24.8587" y2="192.0101" gradientTransform="matrix(-1 0 0 -1 290.625 357.4261)">
		<stop  offset="0" style="stop-color:#7F12BD"/>
		<stop  offset="0.5" style="stop-color:#A931EE"/>
		<stop  offset="1" style="stop-color:#7F12BD"/>
	</linearGradient>
	
		<line style="fill:none;stroke:url(#SVGID_00000086655177658995161520000004690657650154817172_);stroke-width:3;stroke-linecap:round;stroke-miterlimit:10;" x1="267.9" y1="169.8" x2="267.9" y2="165.4"/>
</g>
<g>
	<path class="st37" d="M15.4,291.9c0-1.5,1.2-2.7,2.7-2.7h2.1c1.4,0,2.7,1.2,2.7,2.7v1c0,3.5,0.7,5.2,1.7,6.1c0.8,0.8,2.1,1,3.1,1
		c3.1,0,4.8-1.3,4.8-5.2c0-3.5-3.4-6.2-7-9v0.1c-4.9-3.8-10-7.8-10-15.1c0-8.3,4.4-13.1,12.2-13.1c8,0,12.2,5.1,12.2,14.5v1
		c0,1.5-1.2,2.7-2.7,2.7h-2.1c-1.5,0-2.7-1.2-2.7-2.7v-1c0-4.9-1.6-7.1-4.8-7.1c-3.1,0-4.8,1.7-4.8,5.5c0,3.8,3.6,6.6,7.2,9.5H30
		c4.9,3.8,9.8,7.5,9.8,14.7c0,8.3-4.4,12.7-12.2,12.7c-8.1,0-12.2-4.7-12.2-14.4V291.9z"/>
	<path class="st37" d="M47.6,260.1c0-1.5,1.2-2.7,2.6-2.7h2.1c1.5,0,2.7,1.2,2.7,2.7v33.6c0,3.9,1.2,6.2,4.8,6.2
		c3.8,0,4.8-2.7,4.8-6.2v-33.6c0-1.5,1.2-2.7,2.6-2.7h2.1c1.5,0,2.7,1.2,2.7,2.7v33.6c0,8.3-3.5,13.5-12.1,13.5
		c-8.9,0-12.1-5.7-12.1-13.5V260.1z"/>
	<path class="st37" d="M84.8,307.3c-1.5,0-2.7-1.2-2.7-2.7v-44.5c0-1.5,1.2-2.7,2.7-2.7h7.3c8.6,0,12.5,4.7,12.5,14.3
		c0,6.9-3.2,10.6-3.2,10.6c1.9,2.4,3.2,6.1,3.2,10.6c0,9.5-3.8,14.3-12.5,14.3H84.8z M89.5,264.8v13.9h2.6c3.6,0,5.1-2,5.1-6.9
		c0-4.9-1.5-6.9-5.1-6.9H89.5z M89.5,286v14h2.6c3.6,0,5.1-2,5.1-6.9c0-5-1.5-7-5.1-7H89.5z"/>
	<path class="st37" d="M134,304.6c0,1.5-1.2,2.7-2.7,2.7h-15.7c-1.5,0-2.7-1.2-2.7-2.7v-44.5c0-1.5,1.2-2.7,2.7-2.7h2.1
		c1.4,0,2.6,1.2,2.6,2.7V300h11c1.5,0,2.7,1.2,2.7,2.7V304.6z"/>
	<path class="st37" d="M148.6,304.6c0,1.5-1.3,2.7-2.7,2.7h-2.1c-1.5,0-2.7-1.2-2.7-2.7v-44.5c0-1.5,1.2-2.7,2.7-2.7h2.1
		c1.4,0,2.7,1.2,2.7,2.7V304.6z"/>
	<path class="st37" d="M169.2,307.3c-1.1,0-2.3-1-2.5-2.1l-2.5-16.6v16c0,1.5-1.3,2.7-2.7,2.7h-2.1c-1.5,0-2.7-1.2-2.7-2.7v-44.5
		c0-1.5,1.2-2.7,2.7-2.7h2.2c1.1,0,2.3,1,2.5,2.1l5.8,29.8l5.8-29.8c0.2-1.1,1.5-2.1,2.6-2.1h2.2c1.5,0,2.7,1.2,2.7,2.7v44.5
		c0,1.5-1.2,2.7-2.7,2.7h-2.1c-1.5,0-2.7-1.2-2.7-2.7v-15.9l-2.4,16.4c-0.3,1.2-1.5,2.1-2.6,2.1H169.2z"/>
	<path class="st37" d="M211.6,257.5c1.5,0,2.7,1.2,2.7,2.7v2c0,1.5-1.2,2.7-2.7,2.7h-11.3v13.9h9.3c1.5,0,2.7,1.2,2.7,2.7v2
		c0,1.5-1.2,2.7-2.7,2.7h-9.3v14h11.3c1.5,0,2.7,1.2,2.7,2.7v2c0,1.5-1.2,2.7-2.7,2.7h-16c-1.5,0-2.7-1.2-2.7-2.7v-44.5
		c0-1.5,1.2-2.7,2.7-2.7H211.6z"/>
	<path class="st37" d="M261.3,307.3c-0.9,0-2.1-0.8-2.4-1.6l-10.3-25.4v24.4c0,1.5-1.3,2.7-2.7,2.7h-2.1c-1.4,0-2.7-1.2-2.7-2.7
		v-44.5c0-1.5,1.3-2.7,2.7-2.7h1.8c1,0,2.1,0.8,2.4,1.6l10.3,25.4v-24.4c0-1.5,1.2-2.7,2.7-2.7h2.1c1.5,0,2.7,1.2,2.7,2.7v44.5
		c0,1.5-1.2,2.7-2.7,2.7H261.3z"/>
	<path class="st37" d="M274.8,271.9c0-9.3,4.1-14.4,12.1-14.4c8.1,0,12.1,5,12.1,14.4v20.9c0,5.8-1.6,9.2-3.8,11.5
		c-2.4,2.4-5.5,3-8.3,3c-2.7,0-5.8-0.6-8.2-3c-2.3-2.3-3.9-5.7-3.9-11.5V271.9z M282.2,292.8c0,4.9,1.6,7.2,4.7,7.2
		c3.1,0,4.7-2.1,4.7-7.2v-20.9c0-4.9-1.6-7.1-4.7-7.1c-3.2,0-4.7,2.3-4.7,7.1V292.8z"/>
	<path class="st37" d="M322.2,287.7l6.6-28.1c0.2-1.1,1.5-2.1,2.6-2.1h2.1c1.8,0,3,1.6,2.6,3.2l-10.5,44.5c-0.3,1.2-1.5,2.1-2.6,2.1
		h-1.6c-1.2,0-2.4-0.9-2.6-2.1l-10.5-44.5c-0.4-1.7,0.7-3.2,2.6-3.2h2.1c1.1,0,2.3,1,2.6,2.1L322.2,287.7z"/>
</g>
</svg>
