<?xml version="1.0" encoding="utf-8"?>
<!-- Generator: Adobe Illustrator 27.8.1, SVG Export Plug-In . SVG Version: 6.00 Build 0)  -->
<svg version="1.1" id="logo" xmlns="http://www.w3.org/2000/svg" xmlns:xlink="http://www.w3.org/1999/xlink" x="0px" y="0px"
	 viewBox="0 0 262.6 255.3" style="enable-background:new 0 0 262.6 255.3;" xml:space="preserve">
<style type="text/css">
	.st0{fill:none;stroke:#FFFFFF;stroke-width:3;stroke-linecap:round;stroke-miterlimit:10;}
	.st1{fill:#D290F9;}
</style>
<g>
	<line class="st0" x1="48.1" y1="131.5" x2="48.1" y2="155.9"/>
	<line class="st0" x1="55.1" y1="112.3" x2="55.1" y2="178.6"/>
	<line class="st0" x1="60.8" y1="98.2" x2="60.8" y2="189.8"/>
	<line class="st0" x1="68.3" y1="89.5" x2="68.3" y2="192.7"/>
	<line class="st0" x1="75.3" y1="81.3" x2="75.3" y2="200.9"/>
	<line class="st0" x1="82.2" y1="75.9" x2="82.2" y2="206"/>
	<line class="st0" x1="88.5" y1="211" x2="88.5" y2="72.3"/>
	<line class="st0" x1="96" y1="215.3" x2="96" y2="69.5"/>
	<line class="st0" x1="102.3" y1="218.9" x2="102.3" y2="65.8"/>
	<line class="st0" x1="109.7" y1="62.6" x2="109.7" y2="222.1"/>
	<line class="st0" x1="116.7" y1="62.6" x2="116.7" y2="107.2"/>
	<line class="st0" x1="123.3" y1="62.6" x2="123.3" y2="100.7"/>
	<line class="st0" x1="129.9" y1="97.8" x2="129.9" y2="62"/>
	<line class="st0" x1="136.7" y1="96.6" x2="136.7" y2="63.2"/>
	<line class="st0" x1="143.7" y1="95.2" x2="143.7" y2="65.8"/>
	<line class="st0" x1="150.6" y1="95.2" x2="150.6" y2="68.4"/>
	<line class="st0" x1="157.2" y1="99.1" x2="157.2" y2="75.1"/>
	<line class="st0" x1="163.9" y1="105.8" x2="163.9" y2="84.7"/>
	<line class="st0" x1="170.9" y1="107.9" x2="170.9" y2="101.3"/>
	<line class="st0" x1="115.7" y1="224" x2="115.7" y2="136.3"/>
	<line class="st0" x1="123.2" y1="224" x2="123.2" y2="148.3"/>
	<line class="st0" x1="130" y1="225.4" x2="130" y2="151.6"/>
	<line class="st0" x1="136.6" y1="226.1" x2="136.6" y2="161.8"/>
	<line class="st0" x1="143.3" y1="226.1" x2="143.3" y2="157.8"/>
	<line class="st0" x1="150.4" y1="225.4" x2="150.4" y2="156.8"/>
	<line class="st0" x1="157.1" y1="224.5" x2="157.1" y2="154.5"/>
	<line class="st0" x1="164.3" y1="222.1" x2="164.3" y2="152.2"/>
	<line class="st0" x1="171.1" y1="219.5" x2="171.1" y2="152.2"/>
	<line class="st0" x1="177.9" y1="216.7" x2="177.9" y2="151"/>
	<line class="st0" x1="184.9" y1="212.7" x2="184.9" y2="150.8"/>
	<line class="st0" x1="192.1" y1="207.9" x2="192.1" y2="150.8"/>
	<line class="st0" x1="198.5" y1="202.9" x2="198.5" y2="152.2"/>
	<line class="st0" x1="212.8" y1="187.2" x2="212.8" y2="156.8"/>
	<line class="st0" x1="205.6" y1="196" x2="205.6" y2="153.5"/>
	<line class="st0" x1="220" y1="177.8" x2="220" y2="161.2"/>
	<g>
		
			<image style="overflow:visible;" width="200" height="58" xlink:href="18F2D016.png"  transform="matrix(1 0 0 1 40.2441 130.2634)">
		</image>
		<g>
			<path class="st0" d="M225.2,165.4c0,0-23.5-35.7-92.1-2.2c-18.4,9-38.4,14.1-58.9,13.5c-5.9-0.2-12.2-0.8-18.8-1.9"/>
		</g>
	</g>
	<line class="st0" x1="225.2" y1="169.8" x2="225.2" y2="165.4"/>
</g>
<g>
	<path class="st1" d="M826.4,206.7c0-1.5,1.2-2.7,2.7-2.7h2.1c1.4,0,2.7,1.2,2.7,2.7v1c0,3.5,0.7,5.2,1.7,6.1c0.8,0.8,2.1,1,3.1,1
		c3.1,0,4.8-1.3,4.8-5.2c0-3.5-3.4-6.2-7-9v0.1c-4.9-3.8-10-7.8-10-15.1c0-8.3,4.4-13.1,12.2-13.1c8,0,12.2,5.1,12.2,14.5v1
		c0,1.5-1.2,2.7-2.7,2.7H846c-1.5,0-2.7-1.2-2.7-2.7v-1c0-4.9-1.6-7.1-4.8-7.1c-3.1,0-4.8,1.7-4.8,5.5c0,3.8,3.6,6.6,7.2,9.5h-0.1
		c4.9,3.8,9.8,7.5,9.8,14.7c0,8.3-4.4,12.7-12.2,12.7c-8.1,0-12.2-4.7-12.2-14.4V206.7z"/>
	<path class="st1" d="M858.6,174.9c0-1.5,1.2-2.7,2.6-2.7h2.1c1.5,0,2.7,1.2,2.7,2.7v33.6c0,3.9,1.2,6.2,4.8,6.2
		c3.8,0,4.8-2.7,4.8-6.2v-33.6c0-1.5,1.2-2.7,2.6-2.7h2.1c1.5,0,2.7,1.2,2.7,2.7v33.6c0,8.3-3.5,13.5-12.1,13.5
		c-8.9,0-12.1-5.7-12.1-13.5V174.9z"/>
	<path class="st1" d="M895.7,222.1c-1.5,0-2.7-1.2-2.7-2.7V175c0-1.5,1.2-2.7,2.7-2.7h7.3c8.6,0,12.5,4.7,12.5,14.3
		c0,6.9-3.2,10.6-3.2,10.6c1.9,2.4,3.2,6.1,3.2,10.6c0,9.5-3.8,14.3-12.5,14.3H895.7z M900.4,179.7v13.9h2.6c3.6,0,5.1-2,5.1-6.9
		c0-4.9-1.5-6.9-5.1-6.9H900.4z M900.4,200.9v14h2.6c3.6,0,5.1-2,5.1-6.9c0-5-1.5-7-5.1-7H900.4z"/>
	<path class="st1" d="M945,219.5c0,1.5-1.2,2.7-2.7,2.7h-15.7c-1.5,0-2.7-1.2-2.7-2.7V175c0-1.5,1.2-2.7,2.7-2.7h2.1
		c1.4,0,2.6,1.2,2.6,2.7v39.8h11c1.5,0,2.7,1.2,2.7,2.7V219.5z"/>
	<path class="st1" d="M959.6,219.5c0,1.5-1.3,2.7-2.7,2.7h-2.1c-1.5,0-2.7-1.2-2.7-2.7V175c0-1.5,1.2-2.7,2.7-2.7h2.1
		c1.4,0,2.7,1.2,2.7,2.7V219.5z"/>
	<path class="st1" d="M980.2,222.1c-1.1,0-2.3-1-2.5-2.1l-2.5-16.6v16c0,1.5-1.3,2.7-2.7,2.7h-2.1c-1.5,0-2.7-1.2-2.7-2.7V175
		c0-1.5,1.2-2.7,2.7-2.7h2.2c1.1,0,2.3,1,2.5,2.1l5.8,29.8l5.8-29.8c0.2-1.1,1.5-2.1,2.6-2.1h2.2c1.5,0,2.7,1.2,2.7,2.7v44.5
		c0,1.5-1.2,2.7-2.7,2.7h-2.1c-1.5,0-2.7-1.2-2.7-2.7v-15.9l-2.4,16.4c-0.3,1.2-1.5,2.1-2.6,2.1H980.2z"/>
	<path class="st1" d="M1022.5,172.4c1.5,0,2.7,1.2,2.7,2.7v2c0,1.5-1.2,2.7-2.7,2.7h-11.3v13.9h9.3c1.5,0,2.7,1.2,2.7,2.7v2
		c0,1.5-1.2,2.7-2.7,2.7h-9.3v14h11.3c1.5,0,2.7,1.2,2.7,2.7v2c0,1.5-1.2,2.7-2.7,2.7h-16c-1.5,0-2.7-1.2-2.7-2.7V175
		c0-1.5,1.2-2.7,2.7-2.7H1022.5z"/>
	<path class="st1" d="M1072.3,222.1c-0.9,0-2.1-0.8-2.4-1.6l-10.3-25.4v24.4c0,1.5-1.3,2.7-2.7,2.7h-2.1c-1.4,0-2.7-1.2-2.7-2.7V175
		c0-1.5,1.3-2.7,2.7-2.7h1.8c1,0,2.1,0.8,2.4,1.6l10.3,25.4V175c0-1.5,1.2-2.7,2.7-2.7h2.1c1.5,0,2.7,1.2,2.7,2.7v44.5
		c0,1.5-1.2,2.7-2.7,2.7H1072.3z"/>
	<path class="st1" d="M1085.8,186.8c0-9.3,4.1-14.4,12.1-14.4c8.1,0,12.1,5,12.1,14.4v20.9c0,5.8-1.6,9.2-3.8,11.5
		c-2.4,2.4-5.5,3-8.3,3c-2.7,0-5.8-0.6-8.2-3c-2.3-2.3-3.9-5.7-3.9-11.5V186.8z M1093.2,207.7c0,4.9,1.6,7.2,4.7,7.2
		c3.1,0,4.7-2.1,4.7-7.2v-20.9c0-4.9-1.6-7.1-4.7-7.1c-3.2,0-4.7,2.3-4.7,7.1V207.7z"/>
	<path class="st1" d="M1133.1,202.5l6.6-28.1c0.2-1.1,1.5-2.1,2.6-2.1h2.1c1.8,0,3,1.6,2.6,3.2l-10.5,44.5c-0.3,1.2-1.5,2.1-2.6,2.1
		h-1.6c-1.2,0-2.4-0.9-2.6-2.1l-10.5-44.5c-0.4-1.7,0.7-3.2,2.6-3.2h2.1c1.1,0,2.3,1,2.6,2.1L1133.1,202.5z"/>
</g>
</svg>
